<svg xmlns="http://www.w3.org/2000/svg" version="1.1" xmlns:xlink="http://www.w3.org/1999/xlink" xmlns:svgjs="http://svgjs.com/svgjs" width="512" height="512" x="0" y="0" viewBox="0 0 512 512" style="enable-background:new 0 0 512 512" xml:space="preserve"><g><g xmlns="http://www.w3.org/2000/svg"><path d="m360.54 107.53 22.28-36.73c4.52-7.44 14.24-9.67 21.61-5.03 28.127 17.732 52.136 41.405 70.289 69.237l-28.702 27.533-32.667 13.51c-12.29-19.07-28.62-35.3-47.77-47.47-7.12-4.52-9.41-13.84-5.04-21.05z" fill="#70c6db" data-original="#70c6db" style=""></path><path d="m456.234 147.37 18.501-12.374c3.68 5.637 7.119 11.444 10.303 17.409-18.897-35.414-46.779-65.308-80.61-86.631-7.363-4.64-17.09-2.413-21.604 5.028l-2.35 3.874c2.112.252 4.204.95 6.126 2.161 28.284 17.827 52.16 42.007 69.634 70.533z" fill="#64b0cb" data-original="#64b0cb" style=""></path><path d="m512 260.558-37.265 10-36.578-10c0-31.138-9.11-60.141-24.809-84.503l61.387-41.059c23.57 36.104 37.265 79.234 37.265 125.562z" fill="#ecc52e" data-original="#ecc52e" style=""></path><path d="m512 260.558c-.49-3.119 3.501-63.115-37.265-125.562l-18.501 12.374c20.187 32.954 31.828 71.709 31.828 113.188z" fill="#e69824" data-original="#e69824" style=""></path><path d="m474.735 386.12-33.799-17.6-27.588-23.458c15.699-24.362 24.809-53.365 24.809-84.503h73.844c-.001 46.327-13.696 89.457-37.266 125.561z" fill="#e69642" data-original="#e69642" style=""></path><path d="m488.062 260.558c0 41.478-11.642 80.233-31.828 113.188l18.501 12.374c24.312-37.24 37.265-80.651 37.265-125.562z" fill="#e27c48" data-original="#e27c48" style=""></path><path d="m382.824 450.315-22.28-36.723c-4.38-7.221-2.09-16.529 5.033-21.061 19.158-12.165 35.487-28.398 47.771-47.469l61.387 41.058c-18.16 27.832-42.185 51.486-70.309 69.224-7.362 4.64-17.092 2.408-21.602-5.029z" fill="#df646e" data-original="#df646e" style=""></path><path d="m474.735 386.12-18.501-12.374c-17.474 28.527-41.351 52.707-69.636 70.535-1.921 1.211-4.013 1.908-6.124 2.161l2.35 3.873c1.128 1.86 2.582 3.394 4.244 4.576 4.984 3.547 11.837 3.932 17.358.452 27.993-17.653 52.072-41.275 70.309-69.223z" fill="#cd5668" data-original="#cd5668" style=""></path><path d="m452.593 198.898-107.542 31.505 29.934 51.847 81.055-77.382c2.689-2.567.121-7.015-3.447-5.97z" fill="#6cbff8" data-original="#6cbff8" style=""></path><path d="m392.91 260.558c0-22.213-18.007-40.221-40.221-40.221s-40.221 18.008-40.221 40.221 18.008 40.221 40.221 40.221 40.221-18.008 40.221-40.221z" fill="#407194" data-original="#407194" style=""></path><g><path d="m302.579 165.339-21.727-17.463c-13.328-10.712-20.273-27.48-18.424-44.479l3.015-27.712c.819-7.524-5.532-13.874-13.056-13.056l-27.712 3.015c-16.999 1.849-33.767-5.096-44.479-18.424l-17.463-21.727c-4.741-5.899-13.723-5.899-18.464 0l-17.463 21.727c-10.712 13.328-27.48 20.273-44.479 18.424l-27.711-3.014c-7.524-.819-13.874 5.532-13.056 13.056l3.015 27.712c1.849 16.999-5.096 33.767-18.424 44.479l-21.727 17.462c-5.899 4.741-5.899 13.723 0 18.464l21.727 17.463c13.328 10.712 20.273 27.48 18.424 44.479l-3.015 27.712c-.819 7.524 5.532 13.874 13.056 13.056l27.712-3.015c16.999-1.849 33.767 5.096 44.479 18.424l17.463 21.727c4.741 5.899 13.723 5.899 18.464 0l17.463-21.727c10.712-13.328 27.48-20.273 44.479-18.424l27.712 3.015c7.524.819 13.874-5.532 13.056-13.056l-3.015-27.712c-1.849-16.999 5.096-33.767 18.424-44.479l21.727-17.463c5.898-4.741 5.898-13.722-.001-18.464z" fill="#ecc52e" data-original="#ecc52e" style=""></path><circle cx="153.502" cy="174.571" fill="#e69642" r="86.057" data-original="#e69642" style=""></circle><path d="m176.289 91.587c18.75 15.786 30.675 39.421 30.675 65.85 0 47.528-38.529 86.057-86.057 86.057-7.892 0-15.527-1.083-22.787-3.073 14.968 12.602 34.283 20.207 55.382 20.207 47.528 0 86.057-38.529 86.057-86.057-.001-39.636-26.806-72.992-63.27-82.984z" fill="#e27c48" data-original="#e27c48" style=""></path></g><g fill="#ddebfd"><path d="m123.187 206.121h-6.134c-11.871 0-21.528-9.658-21.528-21.529v-33.843c0-4.268 3.459-7.726 7.726-7.726s7.726 3.459 7.726 7.726v33.843c0 3.35 2.725 6.076 6.075 6.076h6.134c3.35 0 6.076-2.726 6.076-6.076v-33.843c0-4.268 3.459-7.726 7.726-7.726s7.726 3.459 7.726 7.726v33.843c.001 11.871-9.657 21.529-21.527 21.529z" fill="#ddebfd" data-original="#ddebfd" style=""></path><path d="m185.124 204.405c-4.659-.001-8.683-2.836-10.25-7.224l-15.654-43.834c-1.435-4.019.659-8.44 4.678-9.875 4.017-1.431 8.439.659 9.875 4.678l11.352 31.788 11.352-31.788c1.435-4.019 5.856-6.114 9.875-4.678s6.113 5.856 4.678 9.875l-15.654 43.834c-1.569 4.388-5.593 7.224-10.252 7.224z" fill="#ddebfd" data-original="#ddebfd" style=""></path></g><g fill="#75cff9"><path d="m78.35 490.93c-4.267 0-7.726-3.459-7.726-7.726 0-10.882 3.658-16.728 6.598-21.427 2.464-3.938 4.244-6.784 4.244-13.229s-1.78-9.291-4.244-13.228c-2.939-4.698-6.598-10.544-6.598-21.427 0-10.881 3.658-16.727 6.598-21.425 2.464-3.938 4.244-6.783 4.244-13.226 0-4.268 3.459-7.726 7.726-7.726s7.726 3.459 7.726 7.726c0 10.88-3.658 16.726-6.598 21.424-2.464 3.938-4.244 6.783-4.244 13.227 0 6.446 1.78 9.292 4.244 13.229 2.94 4.698 6.598 10.544 6.598 21.426s-3.658 16.728-6.598 21.427c-2.464 3.938-4.244 6.784-4.244 13.229 0 4.268-3.459 7.726-7.726 7.726z" fill="#75cff9" data-original="#75cff9" style=""></path><path d="m148.08 490.93c-4.267 0-7.726-3.459-7.726-7.726 0-10.882 3.658-16.728 6.598-21.427 2.464-3.938 4.244-6.784 4.244-13.229s-1.78-9.291-4.244-13.228c-2.939-4.698-6.598-10.544-6.598-21.427 0-10.881 3.658-16.727 6.598-21.425 2.464-3.938 4.244-6.783 4.244-13.226 0-4.268 3.459-7.726 7.726-7.726s7.726 3.459 7.726 7.726c0 10.88-3.658 16.726-6.598 21.424-2.464 3.938-4.244 6.783-4.244 13.227 0 6.446 1.78 9.292 4.244 13.229 2.94 4.698 6.598 10.544 6.598 21.426s-3.658 16.728-6.598 21.427c-2.464 3.938-4.244 6.784-4.244 13.229.001 4.268-3.458 7.726-7.726 7.726z" fill="#75cff9" data-original="#75cff9" style=""></path><path d="m217.811 490.93c-4.267 0-7.726-3.459-7.726-7.726 0-10.882 3.658-16.728 6.598-21.427 2.464-3.938 4.244-6.784 4.244-13.229s-1.78-9.291-4.244-13.228c-2.939-4.698-6.598-10.544-6.598-21.427 0-10.881 3.658-16.727 6.598-21.425 2.464-3.938 4.244-6.783 4.244-13.226 0-4.268 3.459-7.726 7.726-7.726s7.726 3.459 7.726 7.726c0 10.88-3.658 16.726-6.598 21.424-2.464 3.938-4.244 6.783-4.244 13.227 0 6.446 1.78 9.292 4.244 13.229 2.94 4.698 6.598 10.544 6.598 21.426s-3.658 16.728-6.598 21.427c-2.464 3.938-4.244 6.784-4.244 13.229.001 4.268-3.459 7.726-7.726 7.726z" fill="#75cff9" data-original="#75cff9" style=""></path></g></g></g></svg>