<svg xmlns="http://www.w3.org/2000/svg" version="1.1" xmlns:xlink="http://www.w3.org/1999/xlink" xmlns:svgjs="http://svgjs.com/svgjs" width="512" height="512" x="0" y="0" viewBox="0 0 512 512" style="enable-background:new 0 0 512 512" xml:space="preserve" class=""><g><g xmlns="http://www.w3.org/2000/svg"><path d="m450.506 325.164c-70.048 31.416-152.349-.154-183.355-70.513-30.264-68.674.249-149.707 68.303-181.342 13.508-6.279 27.492-10.189 41.495-11.91 8.624-1.06 9.63-13.198 1.285-15.615-41.962-12.155-88.28-10.089-131.277 9.13-96.856 43.295-139.946 155.996-96.667 252.858 43.181 96.645 156.57 139.886 253.122 96.584 43.078-19.32 75.515-52.603 94.374-92.115 3.722-7.799-6.013-15.113-12.502-9.407-10.152 8.928-21.795 16.507-34.778 22.33z" fill="#dadada" data-original="#ffe02f" style="" class=""></path><path d="m341.424 420.458c-2.228-23.96-14.653-45.365-33.839-59.132-1.128-30.04-25.49-54.236-55.596-55.097-21.695-33.743-59.242-54.689-100.257-54.689-5.685 0-11.276.405-16.751 1.179 2.265 18.644 7.332 37.268 15.421 55.304 34.21 76.277 112.19 119.193 191.022 112.435z" fill="#b9bbbc" data-original="#f9c301" style="" class=""></path><path d="m280.605 374.829c1.319-3.525 2.044-7.339 2.044-11.324 0-17.852-14.472-32.324-32.324-32.324-4.251 0-8.306.829-12.023 2.32-14.435-33.517-47.76-56.985-86.57-56.985-52.036 0-94.22 42.184-94.22 94.22-31.763 0-57.512 25.749-57.512 57.512s25.749 57.513 57.513 57.513h201.787c31.763 0 57.513-25.749 57.513-57.513-.001-24.233-14.996-44.951-36.208-53.419z" fill="#eff3f5" data-original="#eff3f5" style="" class=""></path><path d="m280.605 374.829c1.319-3.525 2.044-7.339 2.044-11.324 0-17.852-14.472-32.324-32.324-32.324-4.251 0-8.306.829-12.023 2.32-14.435-33.517-47.76-56.985-86.57-56.985-52.036 0-94.22 42.184-94.22 94.22-31.763 0-57.512 25.749-57.512 57.512s25.749 57.513 57.513 57.513h201.787c31.763 0 57.513-25.749 57.513-57.513-.001-24.233-14.996-44.951-36.208-53.419z" fill="#eff3f5" data-original="#eff3f5" style="" class=""></path><path d="m280.605 374.829c1.319-3.525 2.044-7.339 2.044-11.324 0-17.852-14.472-32.324-32.324-32.324-1.989 0-3.933.188-5.822.534 2.07 9.369 3.171 19.102 3.171 29.093 0 56.784-35.256 105.333-85.073 124.952h96.698c31.763 0 57.513-25.749 57.513-57.513 0-24.232-14.995-44.95-36.207-53.418z" fill="#c9e2e7" data-original="#c9e2e7" style="" class=""></path><path d="m487.738 177.972c.884-2.362 1.37-4.918 1.37-7.588 0-11.962-9.697-21.66-21.66-21.66-2.848 0-5.565.555-8.057 1.555-9.673-22.459-32.004-38.185-58.01-38.185-34.869 0-63.136 28.267-63.136 63.136-21.284 0-38.539 17.254-38.539 38.539 0 21.284 17.254 38.539 38.539 38.539h135.215c21.284 0 38.539-17.254 38.539-38.539.001-16.24-10.047-30.123-24.261-35.797z" fill="#eff3f5" data-original="#eff3f5" style="" class=""></path><path d="m487.738 177.972c.884-2.362 1.37-4.918 1.37-7.588 0-11.962-9.697-21.66-21.66-21.66-2.848 0-5.565.555-8.057 1.555-9.673-22.459-32.004-38.185-58.01-38.185-34.869 0-63.136 28.267-63.136 63.136-21.284 0-38.539 17.254-38.539 38.539 0 21.284 17.254 38.539 38.539 38.539h135.215c21.284 0 38.539-17.254 38.539-38.539.001-16.24-10.047-30.123-24.261-35.797z" fill="#eff3f5" data-original="#eff3f5" style="" class=""></path><path d="m487.738 177.972c.884-2.362 1.37-4.918 1.37-7.588 0-11.962-9.697-21.66-21.66-21.66-1.333 0-2.636.126-3.902.358 1.387 6.278 2.125 12.8 2.125 19.495 0 38.05-23.625 70.583-57.006 83.729h64.796c21.284 0 38.539-17.254 38.539-38.539 0-16.238-10.048-30.121-24.262-35.795z" fill="#c9e2e7" data-original="#c9e2e7" style="" class=""></path><g fill="#ffe02f"><path d="m43.418 137.601 4.978 10.086c.874 1.771 2.563 2.998 4.518 3.282l11.13 1.617c4.921.715 6.886 6.763 3.325 10.234l-8.054 7.851c-1.414 1.378-2.059 3.364-1.726 5.311l1.901 11.085c.841 4.901-4.304 8.639-8.706 6.325l-9.955-5.234c-1.748-.919-3.836-.919-5.584 0l-9.955 5.234c-4.402 2.314-9.546-1.424-8.706-6.325l1.901-11.085c.334-1.946-.311-3.932-1.726-5.311l-8.054-7.851c-3.561-3.471-1.596-9.519 3.325-10.234l11.13-1.617c1.954-.284 3.644-1.511 4.518-3.282l4.978-10.086c2.202-4.459 8.561-4.459 10.762 0z" fill="#dadada" data-original="#ffe02f" style="" class=""></path><path d="m453.327 430.024 3.625 7.345c.874 1.771 2.563 2.998 4.518 3.282l8.106 1.178c4.921.715 6.886 6.763 3.325 10.234l-5.866 5.718c-1.414 1.378-2.059 3.364-1.726 5.311l1.385 8.073c.841 4.901-4.304 8.639-8.706 6.325l-7.25-3.812c-1.748-.919-3.836-.919-5.584 0l-7.25 3.812c-4.402 2.314-9.546-1.424-8.706-6.325l1.385-8.073c.334-1.946-.311-3.932-1.726-5.311l-5.866-5.718c-3.561-3.471-1.596-9.519 3.325-10.234l8.106-1.178c1.954-.284 3.644-1.511 4.518-3.282l3.625-7.345c2.202-4.459 8.561-4.459 10.762 0z" fill="#b9bbbc" data-original="#ffe02f" style="" class=""></path><path d="m132.145 28.469 4.338 8.789c.583 1.181 1.709 1.999 3.012 2.188l9.699 1.409c3.281.477 4.591 4.509 2.217 6.823l-7.018 6.841c-.943.919-1.373 2.243-1.15 3.541l1.657 9.66c.56 3.268-2.869 5.759-5.804 4.217l-8.675-4.561c-1.165-.613-2.557-.613-3.723 0l-8.675 4.561c-2.935 1.543-6.364-.949-5.804-4.217l1.657-9.66c.223-1.298-.208-2.622-1.15-3.541l-7.018-6.841c-2.374-2.314-1.064-6.346 2.217-6.823l9.699-1.409c1.303-.189 2.429-1.008 3.012-2.188l4.338-8.789c1.465-2.973 5.704-2.973 7.171 0z" fill="#b9bbbc" data-original="#ffe02f" style="" class=""></path></g></g></g></svg>