<svg xmlns="http://www.w3.org/2000/svg" version="1.1" xmlns:xlink="http://www.w3.org/1999/xlink" xmlns:svgjs="http://svgjs.com/svgjs" width="512" height="512" x="0" y="0" viewBox="0 0 512 511" style="enable-background:new 0 0 512 512" xml:space="preserve" class=""><g transform="matrix(1,0,0,1,0,0)">

<path xmlns="http://www.w3.org/2000/svg" d="m377.813 15.277-7.755-1.127c-2.1-.305-3.916-1.624-4.856-3.527l-3.468-7.028c-2.365-4.793-9.199-4.793-11.565 0l-3.468 7.028c-.939 1.903-2.755 3.222-4.855 3.527l-7.755 1.127c-5.289.769-7.401 7.269-3.574 10.999l5.612 5.47c1.52 1.482 2.213 3.616 1.855 5.708l-1.325 7.724c-.904 5.268 4.626 9.285 9.356 6.798l6.936-3.647c1.879-.988 4.123-.988 6.002 0l6.937 3.647c4.731 2.487 10.26-1.53 9.356-6.798l-1.324-7.724c-.359-2.092.335-4.226 1.854-5.708l5.612-5.47c3.826-3.731 1.714-10.231-3.575-10.999z" fill="#cdcdcd" data-original="#ffe181" style=""/>
<path xmlns="http://www.w3.org/2000/svg" d="m295.016 97.115-10.611-1.542c-2.873-.418-5.358-2.223-6.643-4.826l-4.745-9.615c-3.236-6.557-12.586-6.557-15.823 0l-4.745 9.615c-1.285 2.604-3.769 4.409-6.643 4.826l-10.611 1.542c-7.237 1.052-10.126 9.945-4.89 15.049l7.678 7.484c2.08 2.027 3.028 4.947 2.538 7.809l-1.813 10.568c-1.236 7.207 6.329 12.703 12.801 9.301l9.49-4.989c2.571-1.351 5.641-1.351 8.211 0l9.491 4.989c6.473 3.403 14.037-2.093 12.801-9.301l-1.812-10.568c-.491-2.862.458-5.782 2.537-7.809l7.678-7.484c5.237-5.104 2.347-13.997-4.889-15.049z" fill="#cdcdcd" data-original="#ffe181" style=""/>

<path xmlns="http://www.w3.org/2000/svg" d="m411.066406 193.546875c-26.019531 13.972656-55.523437 22.414063-87.007812 23.699219-111.210938 4.53125-205.035156-81.953125-209.566406-193.152344-.171876-4.207031-.214844-8.394531-.128907-12.550781.199219-9.484375-10.949219-14.59375-17.964843-8.203125-42.574219 38.769531-68.324219 95.417968-65.734376 157.46875 4.640626 111.242187 98.3125 197.488281 209.5625 192.949218 89.851563-3.664062 163.5625-65.628906 186.164063-147.945312 2.46875-9-7.097656-16.683594-15.324219-12.265625zm0 0" fill="#e0e0e0" data-original="#fdc202" style="" class=""></path><path xmlns="http://www.w3.org/2000/svg" d="m402.640625 259.660156c-34.15625 54.226563-93.542969 91.285156-162.417969 94.097656-111.242187 4.535157-204.917968-81.703124-209.558594-192.957031-2.589843-62.039062 23.152344-118.691406 65.730469-157.464843 1.515625-1.378907 3.21875-2.222657 4.960938-2.601563-19.589844 32.621094-30.171875 71.132813-28.46875 112.003906 4.636719 111.242188 98.316406 197.492188 209.558593 192.957031 45.804688-1.871093 87.40625-18.890624 120.195313-46.035156zm0 0" fill="#cdcdcd" data-original="#f0a70a" style="" class=""></path><path xmlns="http://www.w3.org/2000/svg" d="m448.441406 241.207031c-25.382812-.199219-47.371094 14.367188-57.921875 35.621094-.625 1.25-2.296875 1.449219-3.226562.402344-7.425781-8.34375-18.238281-13.601563-30.285157-13.601563-22.386718 0-40.535156 18.148438-40.535156 40.535156 0 2.265626.191406 4.484376.554688 6.648438.195312 1.191406-.710938 2.277344-1.921875 2.277344h-58.898438c-15.328125 0-28.28125 12.015625-28.703125 27.339844-.433594 15.894531 12.320313 28.917968 28.117188 28.917968h192.304687c35.03125 0 63.496094-28.113281 64.0625-63.007812.574219-35.378906-28.164062-64.851563-63.546875-65.132813zm0 0" fill="#2583fa" data-original="#2583fa" style="" class=""></path><path xmlns="http://www.w3.org/2000/svg" d="m512 305.28125c0 35.378906-28.691406 64.066406-64.078125 64.066406h-192.296875c-15.539062 0-28.128906-12.597656-28.128906-28.125 0-4.511718 1.066406-8.777344 2.957031-12.558594 1.285156.1875 2.613281.28125 3.949219.28125h192.300781c35.386719 0 64.078125-28.679687 64.078125-64.066406 0-2.582031-.15625-5.128906-.460938-7.636718 13.289063 11.730468 21.679688 28.910156 21.679688 48.039062zm0 0" fill="#0671f9" data-original="#0671f9" style="" class=""></path><path xmlns="http://www.w3.org/2000/svg" d="m57.21875 281.515625c24.753906-1.160156 46.394531 12.671875 56.65625 33.1875.609375 1.222656 2.261719 1.476563 3.175781.457031 6.960938-7.78125 17.074219-12.679687 28.335938-12.679687 21 0 38.019531 17.023437 38.019531 38.019531 0 2.085938-.171875 4.128906-.496094 6.117188-.195312 1.1875.71875 2.257812 1.921875 2.257812h164.046875c14.792969 0 27.257813 12.105469 26.976563 26.894531-.269531 14.339844-11.980469 25.875-26.378907 25.875h-289.375c-34.132812 0-61.621093-28.457031-60.0312495-62.945312 1.4179685-30.765625 26.3789065-55.746094 57.1484375-57.183594zm0 0" fill="#62a6fd" data-original="#62a6fd" style="" class=""></path><path xmlns="http://www.w3.org/2000/svg" d="m375.859375 375.261719c0 14.578125-11.816406 26.382812-26.378906 26.382812h-289.382813c-33.183594 0-60.097656-26.902343-60.097656-60.097656 0-31.019531 23.507812-56.546875 53.671875-59.753906-4.230469 8.234375-6.625 17.5625-6.625 27.457031 0 33.183594 26.90625 60.097656 60.097656 60.097656h268.039063c.449218 1.902344.675781 3.878906.675781 5.914063zm0 0" fill="#4394fb" data-original="#4394fb" style="" class=""></path><path xmlns="http://www.w3.org/2000/svg" d="m348.609375 348.882812c-32.8125 0-64.175781 15.617188-76.195313 45.496094-.742187 1.84375-3.109374 2.402344-4.605468 1.09375-33.65625-29.421875-87.839844-.679687-80.613282 44.605469.289063 1.800781-1.066406 3.4375-2.886718 3.4375h-36.953125c-19.109375 0-35.113281 15.640625-34.75 34.75.355469 18.515625 15.476562 33.417969 34.078125 33.417969h199.25c106.964844 0 113.855468-162.800782 2.675781-162.800782zm0 0" fill="#a0cafe" data-original="#a0cafe" style="" class=""></path><path xmlns="http://www.w3.org/2000/svg" d="m412.765625 377.5c-10.167969-4.359375-22.101563-6.84375-35.828125-6.84375-32.808594 0-64.171875 15.617188-76.1875 45.5-.742188 1.839844-3.113281 2.402344-4.609375 1.085938-33.652344-29.421876-87.847656-.679688-80.617187 44.613281.292968 1.796875-1.066407 3.4375-2.882813 3.4375h-36.957031c-19.109375 0-35.113282 15.632812-34.75 34.742187.074218 4.03125.859375 7.898438 2.226562 11.472656-16.945312-1.746093-30.214844-15.902343-30.550781-33.246093-.363281-19.109375 15.632813-34.75 34.75-34.75h36.945313c1.828124 0 3.175781-1.632813 2.894531-3.4375-7.230469-45.285157 46.953125-74.027344 80.605469-44.605469 1.496093 1.316406 3.867187.753906 4.609374-1.085938 12.027344-29.882812 43.378907-45.5 76.199219-45.5 29.683594 0 50.953125 11.605469 64.152344 28.617188zm0 0" fill="#81b8fd" data-original="#81b8fd" style="" class=""></path></g></svg>