<svg xmlns="http://www.w3.org/2000/svg" xmlns:xlink="http://www.w3.org/1999/xlink" xmlns:svgjs="http://svgjs.com/svgjs" version="1.1" width="512" height="512" x="0" y="0" viewBox="0 0 512 512" style="enable-background:new 0 0 512 512" xml:space="preserve">
<g>
<path xmlns="http://www.w3.org/2000/svg" d="m377.813 15.277-7.755-1.127c-2.1-.305-3.916-1.624-4.856-3.527l-3.468-7.028c-2.365-4.793-9.199-4.793-11.565 0l-3.468 7.028c-.939 1.903-2.755 3.222-4.855 3.527l-7.755 1.127c-5.289.769-7.401 7.269-3.574 10.999l5.612 5.47c1.52 1.482 2.213 3.616 1.855 5.708l-1.325 7.724c-.904 5.268 4.626 9.285 9.356 6.798l6.936-3.647c1.879-.988 4.123-.988 6.002 0l6.937 3.647c4.731 2.487 10.26-1.53 9.356-6.798l-1.324-7.724c-.359-2.092.335-4.226 1.854-5.708l5.612-5.47c3.826-3.731 1.714-10.231-3.575-10.999z" fill="#cdcdcd" data-original="#ffe181" style=""/>
<path xmlns="http://www.w3.org/2000/svg" d="m295.016 97.115-10.611-1.542c-2.873-.418-5.358-2.223-6.643-4.826l-4.745-9.615c-3.236-6.557-12.586-6.557-15.823 0l-4.745 9.615c-1.285 2.604-3.769 4.409-6.643 4.826l-10.611 1.542c-7.237 1.052-10.126 9.945-4.89 15.049l7.678 7.484c2.08 2.027 3.028 4.947 2.538 7.809l-1.813 10.568c-1.236 7.207 6.329 12.703 12.801 9.301l9.49-4.989c2.571-1.351 5.641-1.351 8.211 0l9.491 4.989c6.473 3.403 14.037-2.093 12.801-9.301l-1.812-10.568c-.491-2.862.458-5.782 2.537-7.809l7.678-7.484c5.237-5.104 2.347-13.997-4.889-15.049z" fill="#cdcdcd" data-original="#ffe181" style=""/>

<path xmlns="http://www.w3.org/2000/svg" d="m62.640625 137.230469c2.804687-46.371094 41.292969-83.113281 88.371094-83.113281 37.964843 0 70.347656 23.902343 82.929687 57.476562 32.695313.394531 59.082032 27.003906 59.082032 59.792969 0 33.035156-26.78125 59.816406-59.816407 59.816406-13.828125 0-154.71875 0-168.925781 0-25.960938 0-47.007812-21.046875-47.007812-47.007813 0-25.410156 20.167968-46.097656 45.367187-46.964843zm0 0" fill="#f0f5f7" data-original="#f0f5f7" style=""/><path xmlns="http://www.w3.org/2000/svg" d="m293.023438 171.390625c0 23.898437-14.027344 44.53125-34.292969 54.105469 3.652343-7.738282 5.699219-16.390625 5.699219-25.519532 0-32.789062-26.382813-59.402343-59.078126-59.792968-12.585937-33.578125-44.964843-57.476563-82.933593-57.476563-17.121094 0-33.109375 4.859375-46.65625 13.28125 15.625-25.136719 43.480469-41.867187 75.25-41.867187 37.960937 0 70.347656 23.898437 82.925781 57.46875 32.699219.398437 59.085938 27.011718 59.085938 59.800781zm0 0" fill="#dde9ed" data-original="#dde9ed" style=""/><path xmlns="http://www.w3.org/2000/svg" d="m460.949219 249.117188c-3.160157-52.179688-46.46875-93.523438-99.445313-93.523438-42.722656 0-79.160156 26.894531-93.320312 64.671875-36.792969.445313-66.484375 30.390625-66.484375 67.289063 0 37.175781 30.136719 67.308593 67.308593 67.308593h190.09375c29.214844 0 52.894532-23.683593 52.894532-52.894531 0-28.597656-22.691406-51.875-51.046875-52.851562zm0 0" fill="#c4e1e8" data-original="#c4e1e8" style=""/><path xmlns="http://www.w3.org/2000/svg" d="m512 301.964844c0 29.214844-23.6875 52.902344-52.902344 52.902344h-4.097656c3.835938-7.324219 6.007812-15.660157 6.007812-24.496094 0-28.59375-22.691406-51.875-51.050781-52.855469-3.15625-52.175781-46.472656-93.523437-99.445312-93.523437-7.144531 0-14.109375.75-20.820313 2.179687 18.121094-18.847656 43.59375-30.578125 71.8125-30.578125 52.976563 0 96.289063 41.339844 99.445313 93.527344 28.359375.96875 51.050781 24.25 51.050781 52.84375zm0 0" fill="#a4d5dd" data-original="#a4d5dd" style=""/><path xmlns="http://www.w3.org/2000/svg" d="m483.066406 193.546875c-26.019531 13.972656-55.523437 22.414063-87.007812 23.699219-111.210938 4.53125-205.035156-81.953125-209.566406-193.152344-.171876-4.207031-.214844-8.394531-.128907-12.550781.199219-9.484375-10.949219-14.59375-17.964843-8.203125-42.574219 38.769531-68.324219 95.417968-65.734376 157.46875 4.640626 111.242187 98.3125 197.488281 209.5625 192.949218 89.851563-3.664062 163.5625-65.628906 186.164063-147.945312 2.46875-9-7.097656-16.683594-15.324219-12.265625zm0 0" fill="#e0e0e0" data-original="#fdc202" style="" class=""/>

<path xmlns="http://www.w3.org/2000/svg" d="m475.640625 259.660156c-34.15625 54.226563-93.542969 91.285156-162.417969 94.097656-111.242187 4.535157-204.917968-81.703124-209.558594-192.957031-2.589843-62.039062 23.152344-118.691406 65.730469-157.464843 1.515625-1.378907 3.21875-2.222657 4.960938-2.601563-19.589844 32.621094-30.171875 71.132813-28.46875 112.003906 4.636719 111.242188 98.316406 197.492188 209.558593 192.957031 45.804688-1.871093 87.40625-18.890624 120.195313-46.035156zm0 0" fill="#cdcdcd" data-original="#f0a70a" style="" class=""/><path xmlns="http://www.w3.org/2000/svg" d="m259.25 249.117188c-3.160156-52.179688-46.46875-93.523438-99.445312-93.523438-42.722657 0-79.160157 26.894531-93.320313 64.671875-36.792969.445313-66.484375 30.390625-66.484375 67.289063 0 37.171874 30.136719 67.308593 67.308594 67.308593h190.09375c29.214844 0 52.898437-23.683593 52.898437-52.898437-.003906-28.59375-22.695312-51.871094-51.050781-52.847656zm0 0" fill="#c4e1e8" data-original="#c4e1e8" style=""/><path xmlns="http://www.w3.org/2000/svg" d="m310.300781 301.964844c0 29.214844-23.6875 52.902344-52.902343 52.902344h-4.097657c3.835938-7.324219 6.007813-15.660157 6.007813-24.496094 0-28.59375-22.691406-51.875-51.050782-52.855469-3.15625-52.175781-46.472656-93.523437-99.445312-93.523437-7.144531 0-14.109375.75-20.820312 2.179687 18.121093-18.847656 43.59375-30.578125 71.8125-30.578125 52.976562 0 96.289062 41.339844 99.449218 93.527344 28.355469.96875 51.046875 24.25 51.046875 52.84375zm0 0" fill="#a4d5dd" data-original="#a4d5dd" style=""/><path xmlns="http://www.w3.org/2000/svg" d="m418.566406 342.792969c-3.15625-52.179688-46.46875-93.523438-99.441406-93.523438-42.726562 0-79.164062 26.894531-93.324219 64.671875-36.789062.445313-66.480469 30.394532-66.480469 67.289063 0 37.175781 30.132813 67.308593 67.308594 67.308593h190.09375c29.210938 0 52.894532-23.683593 52.894532-52.894531 0-28.597656-22.691407-51.875-51.050782-52.851562zm0 0" fill="#f0f5f7" data-original="#f0f5f7" style=""/><path xmlns="http://www.w3.org/2000/svg" d="m469.621094 395.640625c0 29.214844-23.6875 52.902344-52.902344 52.902344h-4.097656c3.835937-7.324219 6.007812-15.660157 6.007812-24.496094 0-28.59375-22.691406-51.875-51.050781-52.855469-3.15625-52.175781-46.472656-93.523437-99.449219-93.523437-7.144531 0-14.109375.75-20.820312 2.179687 18.125-18.84375 43.597656-30.578125 71.816406-30.578125 52.976562 0 96.289062 41.339844 99.445312 93.527344 28.359376.96875 51.050782 24.25 51.050782 52.84375zm0 0" fill="#dde9ed" data-original="#dde9ed" style=""/><path xmlns="http://www.w3.org/2000/svg" d="m392.191406 336.9375c-3.488281 0-6.652344-2.382812-7.503906-5.921875-.894531-3.71875-2.117188-7.386719-3.636719-10.898437-1.695312-3.917969.105469-8.464844 4.023438-10.160157 3.917969-1.695312 8.464843.109375 10.160156 4.023438 1.871094 4.328125 3.375 8.84375 4.476563 13.421875 1 4.152344-1.558594 8.320312-5.707032 9.320312-.605468.144532-1.214844.214844-1.8125.214844zm0 0" fill="#f0f5f7" data-original="#f0f5f7" style=""/><path xmlns="http://www.w3.org/2000/svg" d="m373.371094 302.578125c-2.03125 0-4.058594-.796875-5.574219-2.378906-12.867187-13.40625-30.152344-20.789063-48.671875-20.789063-4.265625 0-7.726562-3.457031-7.726562-7.726562 0-4.265625 3.460937-7.722656 7.726562-7.722656 22.765625 0 44.011719 9.070312 59.820312 25.542968 2.953126 3.074219 2.855469 7.96875-.222656 10.921875-1.5 1.4375-3.425781 2.152344-5.351562 2.152344zm0 0" fill="#f0f5f7" data-original="#f0f5f7" style=""/><path xmlns="http://www.w3.org/2000/svg" d="m78.875 372.9375c2.257812-37.304688 33.222656-66.859375 71.09375-66.859375 30.546875 0 56.59375 19.226563 66.71875 46.234375 26.304688.320312 47.53125 21.726562 47.53125 48.105469 0 26.578125-21.542969 48.121093-48.121094 48.121093-11.125 0-124.46875 0-135.902344 0-20.882812 0-37.816406-16.929687-37.816406-37.816406 0-20.441406 16.222656-37.085937 36.496094-37.785156zm0 0" fill="#f0f5f7" data-original="#f0f5f7" style=""/><path xmlns="http://www.w3.org/2000/svg" d="m264.21875 400.421875c0 26.347656-21.1875 47.75-47.457031 48.109375 7.875-8.574219 12.679687-19.996094 12.679687-32.542969 0-26.375-21.222656-47.785156-47.535156-48.105469-10.121094-27.003906-36.167969-46.238281-66.71875-46.238281-3.609375 0-7.152344.273438-10.621094.792969 12.324219-10.21875 28.144532-16.355469 45.402344-16.355469 30.546875 0 56.59375 19.222657 66.714844 46.234375 26.3125.320313 47.535156 21.722656 47.535156 48.105469zm0 0" fill="#dde9ed" data-original="#dde9ed" style=""/></g>
</svg>