<svg xmlns="http://www.w3.org/2000/svg" version="1.1" xmlns:xlink="http://www.w3.org/1999/xlink" xmlns:svgjs="http://svgjs.com/svgjs" width="512" height="512" x="0" y="0" viewBox="0 0 512 512" style="enable-background:new 0 0 512 512" xml:space="preserve"><g><path xmlns="http://www.w3.org/2000/svg" d="m402.640625 309.542969c-3.726563-1.910157-8.296875-.4375-10.203125 3.289062l-13.746094 26.835938c-1.90625 3.730469-.433594 8.296875 3.292969 10.207031 1.105469.566406 2.285156.832031 3.449219.832031 2.753906 0 5.414062-1.503906 6.753906-4.125l13.742188-26.835937c1.910156-3.726563.4375-8.296875-3.289063-10.203125zm0 0" fill="#b9d3fd" data-original="#b9d3fd" style=""></path><path xmlns="http://www.w3.org/2000/svg" d="m465.8125 309.550781c-3.722656-1.917969-8.296875-.453125-10.210938 3.265625l-13.820312 26.835938c-1.917969 3.722656-.457031 8.296875 3.265625 10.214844 1.113281.570312 2.296875.839843 3.464844.839843 2.75 0 5.402343-1.5 6.75-4.109375l13.820312-26.835937c1.917969-3.722657.453125-8.292969-3.269531-10.210938zm0 0" fill="#b9d3fd" data-original="#b9d3fd" style=""></path><path xmlns="http://www.w3.org/2000/svg" d="m235.457031 390.171875c-3.734375-1.890625-8.296875-.398437-10.1875 3.339844l-13.589843 26.835937c-1.894532 3.734375-.398438 8.296875 3.339843 10.1875 1.097657.554688 2.265625.820313 3.417969.820313 2.765625 0 5.433594-1.519531 6.769531-4.160157l13.589844-26.832031c1.890625-3.738281.394531-8.300781-3.339844-10.191406zm0 0" fill="#5596fb" data-original="#5596fb" style=""></path><path xmlns="http://www.w3.org/2000/svg" d="m298.398438 390.179688c-3.730469-1.898438-8.296876-.417969-10.199219 3.316406l-13.664063 26.832031c-1.902344 3.734375-.417968 8.296875 3.3125 10.199219 1.101563.5625 2.277344.828125 3.4375.828125 2.757813 0 5.421875-1.515625 6.761719-4.144531l13.664063-26.835938c1.902343-3.730469.417968-8.292969-3.3125-10.195312zm0 0" fill="#5596fb" data-original="#5596fb" style=""></path><path xmlns="http://www.w3.org/2000/svg" d="m361.335938 390.1875c-3.726563-1.90625-8.292969-.433594-10.203126 3.292969l-13.742187 26.835937c-1.910156 3.726563-.4375 8.292969 3.289063 10.203125 1.109374.566407 2.289062.835938 3.453124.835938 2.753907 0 5.410157-1.507813 6.753907-4.128907l13.742187-26.835937c1.910156-3.726563.4375-8.292969-3.292968-10.203125zm0 0" fill="#b9d3fd" data-original="#b9d3fd" style=""></path><path xmlns="http://www.w3.org/2000/svg" d="m424.277344 390.195312c-3.722656-1.917968-8.296875-.453124-10.210938 3.269532l-13.824218 26.832031c-1.917969 3.726563-.453126 8.296875 3.269531 10.214844 1.109375.570312 2.296875.84375 3.464843.84375 2.75 0 5.402344-1.5 6.746094-4.113281l13.824219-26.835938c1.917969-3.722656.453125-8.292969-3.269531-10.210938zm0 0" fill="#b9d3fd" data-original="#b9d3fd" style=""></path><path xmlns="http://www.w3.org/2000/svg" d="m488.265625 390.195312c-3.722656-1.917968-8.292969-.453124-10.210937 3.269532l-13.820313 26.832031c-1.917969 3.726563-.453125 8.296875 3.269531 10.214844 1.109375.570312 2.296875.84375 3.464844.84375 2.746094 0 5.398438-1.5 6.746094-4.113281l13.820312-26.835938c1.917969-3.722656.453125-8.292969-3.269531-10.210938zm0 0" fill="#b9d3fd" data-original="#b9d3fd" style=""></path><path xmlns="http://www.w3.org/2000/svg" d="m194.617188 470.816406c-3.734376-1.894531-8.296876-.398437-10.1875 3.339844l-13.589844 26.835938c-1.894532 3.734374-.398438 8.296874 3.339844 10.1875 1.097656.554687 2.265624.820312 3.417968.820312 2.765625 0 5.433594-1.519531 6.769532-4.15625l13.589843-26.835938c1.890625-3.738281.398438-8.300781-3.339843-10.191406zm0 0" fill="#5596fb" data-original="#5596fb" style=""></path><path xmlns="http://www.w3.org/2000/svg" d="m171.378906 390.171875c-3.734375-1.890625-8.296875-.398437-10.191406 3.339844l-13.585938 26.835937c-1.894531 3.734375-.398437 8.296875 3.339844 10.1875 1.097656.554688 2.265625.820313 3.417969.820313 2.765625 0 5.433594-1.519531 6.769531-4.160157l13.589844-26.832031c1.890625-3.738281.394531-8.300781-3.339844-10.191406zm0 0" fill="#5596fb" data-original="#5596fb" style=""></path><path xmlns="http://www.w3.org/2000/svg" d="m130.539062 470.816406c-3.734374-1.894531-8.296874-.398437-10.1875 3.339844l-13.589843 26.835938c-1.894531 3.734374-.398438 8.296874 3.339843 10.1875 1.097657.554687 2.265626.820312 3.417969.820312 2.765625 0 5.433594-1.519531 6.769531-4.15625l13.589844-26.835938c1.890625-3.738281.398438-8.300781-3.339844-10.191406zm0 0" fill="#5596fb" data-original="#5596fb" style=""></path><path xmlns="http://www.w3.org/2000/svg" d="m257.328125 470.824219c-3.730469-1.898438-8.300781-.417969-10.199219 3.316406l-13.664062 26.835937c-1.902344 3.730469-.417969 8.296876 3.3125 10.195313 1.101562.5625 2.277344.828125 3.4375.828125 2.757812 0 5.421875-1.515625 6.761718-4.144531l13.664063-26.835938c1.902344-3.730469.417969-8.292969-3.3125-10.195312zm0 0" fill="#5596fb" data-original="#5596fb" style=""></path><g xmlns="http://www.w3.org/2000/svg" fill="#b9d3fd"><path d="m320.035156 470.832031c-3.726562-1.90625-8.296875-.433593-10.203125 3.292969l-13.746093 26.835938c-1.90625 3.726562-.433594 8.292968 3.292968 10.203124 1.105469.566407 2.285156.835938 3.449219.835938 2.757813 0 5.414063-1.507812 6.753906-4.128906l13.746094-26.835938c1.90625-3.726562.433594-8.292968-3.292969-10.203125zm0 0" fill="#b9d3fd" data-original="#b9d3fd" style=""></path><path d="m382.742188 470.839844c-3.722657-1.917969-8.292969-.453125-10.210938 3.269531l-13.820312 26.835937c-1.917969 3.722657-.453126 8.292969 3.265624 10.210938 1.113282.570312 2.296876.84375 3.46875.84375 2.746094 0 5.398438-1.5 6.746094-4.113281l13.820313-26.835938c1.917969-3.722656.453125-8.292969-3.269531-10.210937zm0 0" fill="#b9d3fd" data-original="#b9d3fd" style=""></path><path d="m65.4375 228.882812c-3.734375-1.894531-8.296875-.398437-10.191406 3.335938l-13.585938 26.835938c-1.894531 3.734374-.398437 8.296874 3.339844 10.191406 1.097656.554687 2.265625.816406 3.417969.816406 2.765625 0 5.433593-1.519531 6.769531-4.15625l13.589844-26.835938c1.890625-3.734374.394531-8.296874-3.339844-10.1875zm0 0" fill="#b9d3fd" data-original="#b9d3fd" style=""></path><path d="m108.0625 269.238281c1.101562.558594 2.277344.824219 3.433594.824219 2.761718 0 5.421875-1.511719 6.761718-4.140625l13.667969-26.835937c1.898438-3.730469.414063-8.296876-3.316406-10.195313-3.730469-1.902344-8.296875-.417969-10.195313 3.316406l-13.667968 26.832031c-1.902344 3.734376-.417969 8.296876 3.316406 10.199219zm0 0" fill="#b9d3fd" data-original="#b9d3fd" style=""></path><path d="m24.597656 309.527344c-3.734375-1.894532-8.296875-.398438-10.1875 3.339844l-13.589844 26.832031c-1.894531 3.738281-.398437 8.300781 3.339844 10.191406 1.097656.554687 2.265625.820313 3.417969.820313 2.765625 0 5.433594-1.523438 6.769531-4.160157l13.589844-26.832031c1.890625-3.738281.394531-8.300781-3.339844-10.191406zm0 0" fill="#b9d3fd" data-original="#b9d3fd" style=""></path><path d="m87.539062 309.535156c-3.730468-1.902344-8.296874-.417968-10.199218 3.3125l-13.664063 26.835938c-1.902343 3.730468-.417969 8.296875 3.3125 10.195312 1.101563.5625 2.277344.828125 3.4375.828125 2.761719 0 5.421875-1.511719 6.761719-4.140625l13.664062-26.835937c1.902344-3.730469.417969-8.296875-3.3125-10.195313zm0 0" fill="#b9d3fd" data-original="#b9d3fd" style=""></path><path d="m46.46875 390.179688c-3.730469-1.898438-8.296875-.417969-10.199219 3.316406l-13.664062 26.835937c-1.902344 3.730469-.417969 8.296875 3.3125 10.195313 1.101562.5625 2.277343.828125 3.4375.828125 2.757812 0 5.421875-1.515625 6.761719-4.144531l13.664062-26.832032c1.902344-3.734375.417969-8.296875-3.3125-10.199218zm0 0" fill="#b9d3fd" data-original="#b9d3fd" style=""></path></g><path xmlns="http://www.w3.org/2000/svg" d="m109.175781 390.1875c-3.726562-1.90625-8.292969-.433594-10.203125 3.292969l-13.742187 26.835937c-1.910157 3.726563-.4375 8.292969 3.289062 10.203125 1.109375.566407 2.289063.835938 3.449219.835938 2.757812 0 5.414062-1.507813 6.753906-4.128907l13.746094-26.835937c1.90625-3.726563.433594-8.292969-3.292969-10.203125zm0 0" fill="#5596fb" data-original="#5596fb" style=""></path><path xmlns="http://www.w3.org/2000/svg" d="m373.933594 0c-4.1875 0-7.582032 3.394531-7.582032 7.582031v30.601563c0 4.1875 3.394532 7.582031 7.582032 7.582031s7.582031-3.394531 7.582031-7.582031v-30.601563c0-4.1875-3.394531-7.582031-7.582031-7.582031zm0 0" fill="#f29500" data-original="#f29500" style=""></path><path xmlns="http://www.w3.org/2000/svg" d="m317.277344 20.730469c-2.09375-3.625-6.730469-4.867188-10.359375-2.773438-3.625 2.09375-4.867188 6.730469-2.773438 10.355469l15.300781 26.503906c1.40625 2.433594 3.953126 3.792969 6.574219 3.792969 1.285157 0 2.589844-.328125 3.785157-1.015625 3.625-2.09375 4.867187-6.730469 2.773437-10.359375zm0 0" fill="#f29500" data-original="#f29500" style=""></path><path xmlns="http://www.w3.org/2000/svg" d="m294.722656 79.539062-26.503906-15.300781c-3.625-2.09375-8.261719-.851562-10.355469 2.773438-2.09375 3.628906-.851562 8.265625 2.773438 10.359375l26.503906 15.300781c1.195313.691406 2.5 1.015625 3.785156 1.015625 2.621094 0 5.167969-1.359375 6.574219-3.789062 2.09375-3.628907.851562-8.265626-2.777344-10.359376zm0 0" fill="#f29500" data-original="#f29500" style=""></path><path xmlns="http://www.w3.org/2000/svg" d="m500.375 126.445312h-30.601562c-4.1875 0-7.582032 3.394532-7.582032 7.582032s3.394532 7.582031 7.582032 7.582031h30.601562c4.1875 0 7.582031-3.394531 7.582031-7.582031s-3.394531-7.582032-7.582031-7.582032zm0 0" fill="#f29500" data-original="#f29500" style=""></path><path xmlns="http://www.w3.org/2000/svg" d="m490.003906 67.011719c-2.09375-3.625-6.730468-4.867188-10.359375-2.773438l-26.503906 15.300781c-3.625 2.09375-4.867187 6.730469-2.773437 10.359376 1.402343 2.429687 3.953124 3.789062 6.570312 3.789062 1.289062 0 2.589844-.324219 3.785156-1.015625l26.503906-15.300781c3.628907-2.09375 4.871094-6.730469 2.777344-10.359375zm0 0" fill="#f29500" data-original="#f29500" style=""></path><path xmlns="http://www.w3.org/2000/svg" d="m440.945312 17.957031c-3.628906-2.097656-8.261718-.851562-10.355468 2.773438l-15.304688 26.503906c-2.09375 3.628906-.851562 8.265625 2.777344 10.359375 1.191406.6875 2.496094 1.015625 3.78125 1.015625 2.621094 0 5.171875-1.359375 6.574219-3.792969l15.300781-26.503906c2.09375-3.625.851562-8.261719-2.773438-10.355469zm0 0" fill="#f29500" data-original="#f29500" style=""></path><path xmlns="http://www.w3.org/2000/svg" d="m407.011719 192.664062c-32.390625 18.265626-73.453125 6.820313-91.722657-25.566406-18.265624-32.382812-6.8125-73.445312 25.566407-91.710937 3.4375-1.941407 6.964843-3.539063 10.566406-4.8125 30.285156-10.789063 64.828125 1.425781 81.15625 30.378906 4.617187 8.1875 7.339844 16.929687 8.289063 25.714844 2.839843 25.972656-9.664063 52.347656-33.855469 65.996093zm0 0" fill="#f29500" data-original="#f29500" style=""></path><path xmlns="http://www.w3.org/2000/svg" d="m440.867188 126.667969c-30.289063 10.796875-64.832032-1.425781-81.15625-30.375-4.621094-8.191407-7.339844-16.933594-8.289063-25.71875 30.285156-10.789063 64.828125 1.425781 81.15625 30.378906 4.617187 8.1875 7.339844 16.929687 8.289063 25.714844zm0 0" fill="#ffb52d" data-original="#ffb52d" style=""></path><path xmlns="http://www.w3.org/2000/svg" d="m505.3125 265.828125c-.578125 10.144531-9.308594 17.914063-19.46875 17.914063h-207.3125c-15.558594 0-43.574219-17.472657-43.574219-48.519532 0-37.144531 39.152344-58.859375 69.933594-43.550781 3.6875 1.835937 8.128906-.078125 9.175781-4.058594 7.4375-28.425781 33.289063-49.402343 64.050782-49.402343 5.644531 0 11.132812.703124 16.371093 2.042968 21.613281 5.5 38.980469 21.632813 46.203125 42.496094 1.023438 2.9375 3.980469 4.671875 7.066406 4.261719 29.863282-3.957031 53.621094 25.253906 44.558594 53.417969-.929687 2.902343.308594 6.097656 2.984375 7.539062 6.28125 3.367188 10.441407 10.148438 10.011719 17.859375zm0 0" fill="#5596fb" data-original="#5596fb" style=""></path><path xmlns="http://www.w3.org/2000/svg" d="m400.941406 167.023438c0 9.464843-2.1875 17.867187-5.773437 25.125-10.339844 21.035156-32.246094 32.496093-45.988281 32.496093h-45.351563c3.457031 4.535157 6.3125 9.558594 8.402344 14.96875 1.4375 3.71875 5.125 6.121094 9.089843 5.792969 22.78125-1.9375 41.261719 16.949219 41.113282 38.335938h-83.902344c-15.558594 0-43.574219-17.472657-43.574219-48.519532 0-37.144531 39.152344-58.859375 69.933594-43.550781 3.6875 1.835937 8.128906-.078125 9.175781-4.058594 7.4375-28.425781 33.289063-49.402343 64.050782-49.402343 5.644531 0 11.132812.703124 16.371093 2.042968 4.082031 7.789063 6.453125 16.8125 6.453125 26.769532zm0 0" fill="#2476ed" data-original="#2476ed" style=""></path><path xmlns="http://www.w3.org/2000/svg" d="m363.691406 337.179688c.445313 9.339843-6.992187 17.042968-16.234375 17.042968h-205.386719c-12.808593 0-35.867187-14.375-35.867187-39.929687 0-22.867188 18.011719-38.628907 37.707031-39.851563 5.78125-.363281 11.703125.523438 17.367188 2.859375 4.375 1.808594 9.429687-.574219 10.875-5.09375 7.066406-21.917969 27.621094-37.777343 51.890625-37.777343 23.171875 0 42.957031 14.453124 50.839843 34.835937 1.285157 3.316406 4.570313 5.457031 8.109376 5.164063 21.703124-1.847657 39.019531 17.511718 36.390624 38.121093-.617187 4.855469 3.113282 9.152344 7.996094 9.152344h19.613282c6.792968 0 12.859374 4.050781 15.417968 9.957031.746094 1.707032 1.191406 3.558594 1.28125 5.519532zm0 0" fill="#97bffd" data-original="#97bffd" style=""></path><path xmlns="http://www.w3.org/2000/svg" d="m362.410156 331.660156h-183.957031c-12.808594 0-35.867187-14.375-35.867187-39.933594 0-5.328124.441406-11.242187 1.324218-17.285156 5.78125-.363281 11.703125.523438 17.367188 2.859375 4.375 1.808594 9.429687-.574219 10.875-5.09375 7.066406-21.917969 27.621094-37.777343 51.890625-37.777343 23.171875 0 42.957031 14.453124 50.839843 34.835937 1.285157 3.316406 4.570313 5.457031 8.109376 5.164063 21.703124-1.847657 39.019531 17.511718 36.390624 38.121093-.617187 4.855469 3.113282 9.152344 7.996094 9.152344h19.613282c6.792968 0 12.859374 4.050781 15.417968 9.957031zm0 0" fill="#b9d3fd" data-original="#b9d3fd" style=""></path><path xmlns="http://www.w3.org/2000/svg" d="m335.882812 159.035156c0 8.441406-1.953124 15.933594-5.144531 22.402344-9.222656 18.753906-28.753906 28.972656-41.003906 28.972656h-263.722656c-11.335938 0-21-8.808594-21.414063-20.140625-.4375-11.902343 9.085938-21.699219 20.902344-21.699219h35.074219c2.011719 0 3.429687-1.964843 2.804687-3.878906-10.039062-30.839844 17.121094-62.921875 50.226563-56.203125 1.503906.304688 2.992187-.574219 3.429687-2.046875 8.59375-28.992187 35.445313-50.15625 67.230469-50.15625 8.875 0 17.367187 1.648438 25.183594 4.660156 22.101562 8.507813 38.8125 27.894532 43.5625 51.59375.480469 2.394532 3.175781 3.554688 5.269531 2.296876 33.058594-19.792969 77.601562 3.417968 77.601562 44.199218zm0 0" fill="#97bffd" data-original="#97bffd" style=""></path><path xmlns="http://www.w3.org/2000/svg" d="m335.882812 159.035156c0 8.441406-1.953124 15.933594-5.144531 22.402344h-219.667969c-11.335937 0-21-8.808594-21.414062-20.140625-.4375-11.902344 9.085938-21.699219 20.902344-21.699219h35.078125c2.007812 0 3.425781-1.964844 2.804687-3.875-10.035156-30.84375 17.117188-62.921875 50.21875-56.199218 1.503906.304687 2.996094-.566407 3.433594-2.035157 1.738281-5.875 4.222656-11.425781 7.355469-16.542969 22.101562 8.507813 38.8125 27.894532 43.5625 51.59375.480469 2.394532 3.175781 3.554688 5.269531 2.296876 33.058594-19.792969 77.601562 3.417968 77.601562 44.199218zm0 0" fill="#b9d3fd" data-original="#b9d3fd" style=""></path></g></svg>