<svg xmlns="http://www.w3.org/2000/svg" xmlns:xlink="http://www.w3.org/1999/xlink" xmlns:svgjs="http://svgjs.com/svgjs" version="1.1" width="512" height="512" x="0" y="0" viewBox="0 0 512 512.00062" style="enable-background:new 0 0 512 512" xml:space="preserve" class=""><g><path xmlns="http://www.w3.org/2000/svg" d="m249.015625 320.148438c0 7.589843-1.855469 14.28125-4.835937 20.007812-8.054688 15.433594-24.292969 23.824219-34.539063 23.824219h-187.347656c-9.167969 0-17.070313-7.019531-17.582031-16.1875-.449219-7.890625 4.449218-14.714844 11.40625-17.183594 1.226562-.429687 1.832031-1.804687 1.339843-3.011719-9.425781-23.054687 6.402344-47.808594 29.335938-51.003906 4.078125-.566406 8.371093-.453125 12.796875.46875 1.136718.246094 2.292968-.429688 2.621094-1.554688 7.253906-24.867187 30.226562-43.035156 57.4375-43.035156 29.324218 0 53.710937 21.097656 58.832031 48.945313.296875 1.589843 2.070312 2.417969 3.433593 1.558593 28.289063-17.839843 67.101563 2.007813 67.101563 37.171876zm0 0" fill="#2476ed" data-original="#2476ed" style="" class=""/><path xmlns="http://www.w3.org/2000/svg" d="m249.015625 320.148438c0 7.589843-1.855469 14.28125-4.835937 20.007812h-189.210938c-10.132812 0-18.855469-7.742188-19.425781-17.867188-.492188-8.71875 4.917969-16.25 12.589843-18.976562 1.363282-.480469 2.03125-1.984375 1.488282-3.316406-2.6875-6.570313-3.515625-14.726563-2.828125-23.402344 4.078125-.566406 8.371093-.453125 12.796875.46875 1.136718.246094 2.292968-.429688 2.621094-1.554688 7.253906-24.867187 30.226562-43.035156 57.4375-43.035156 29.324218 0 53.710937 21.097656 58.832031 48.945313.296875 1.589843 2.070312 2.417969 3.433593 1.558593 28.289063-17.839843 67.101563 2.007813 67.101563 37.171876zm0 0" fill="#5596fb" data-original="#5596fb" style="" class=""/><path xmlns="http://www.w3.org/2000/svg" d="m220.410156 411.171875-51.34375 52.828125-39.558594 40.707031c-4.375 4.507813-11.640624-.777343-8.699218-6.332031l24.671875-46.515625c4.46875-8.414063-1.628907-18.554687-11.15625-18.554687h-65.71875c-7.613281 0-12.160157-8.476563-7.960938-14.828126l62.183594-93.871093c4.230469-6.382813 11.382813-10.226563 19.046875-10.226563 4.898438 0 9.261719 1.464844 12.835938 3.914063 6.21875 4.242187 10.03125 11.457031 10.03125 18.996093 0 4.253907-1.207032 8.628907-3.894532 12.632813l-30.132812 45.042969h82.847656c8.445312 0 12.726562 10.152344 6.847656 16.207031zm0 0" fill="#FFB112" data-original="#f29500" style="" class=""/><path xmlns="http://www.w3.org/2000/svg" d="m220.410156 411.171875-51.34375 52.828125 15.820313-29.816406c4.464843-8.421875-1.628907-18.566406-11.160157-18.566406h-65.714843c-7.613281 0-12.164063-8.472657-7.960938-14.824219l54.660157-82.5c6.21875 4.242187 10.03125 11.457031 10.03125 18.996093 0 4.253907-1.207032 8.628907-3.894532 12.632813l-30.132812 45.042969h82.847656c8.445312 0 12.726562 10.152344 6.847656 16.207031zm0 0" fill="#FFDF1B" data-original="#ffb52d" style="" class=""/><path xmlns="http://www.w3.org/2000/svg" d="m444.746094 306.8125c-3.773438-1.941406-8.40625-.460938-10.351563 3.3125l-14.007812 27.199219c-1.941407 3.773437-.457031 8.40625 3.3125 10.351562 1.128906.578125 2.328125.855469 3.515625.855469 2.785156 0 5.472656-1.523438 6.835937-4.167969l14.007813-27.199219c1.941406-3.773437.460937-8.410156-3.3125-10.351562zm0 0" fill="#97bffd" data-original="#97bffd" style=""/><path xmlns="http://www.w3.org/2000/svg" d="m497.226562 306.8125c-3.773437-1.941406-8.40625-.460938-10.351562 3.3125l-14.007812 27.199219c-1.941407 3.773437-.460938 8.40625 3.3125 10.351562 1.125.578125 2.328124.855469 3.511718.855469 2.785156 0 5.476563-1.523438 6.839844-4.167969l14.007812-27.199219c1.941407-3.773437.460938-8.410156-3.3125-10.351562zm0 0" fill="#97bffd" data-original="#97bffd" style=""/><path xmlns="http://www.w3.org/2000/svg" d="m297.785156 388.53125c-3.777344-1.921875-8.40625-.421875-10.335937 3.359375l-13.851563 27.199219c-1.925781 3.78125-.417968 8.410156 3.363282 10.335937 1.117187.566407 2.304687.835938 3.480468.835938 2.796875 0 5.496094-1.535157 6.851563-4.199219l13.851562-27.195312c1.925781-3.78125.421875-8.410157-3.359375-10.335938zm0 0" fill="#5596fb" data-original="#5596fb" style="" class=""/><g xmlns="http://www.w3.org/2000/svg" fill="#97bffd"><path d="m59.496094 174.265625c-3.78125-1.921875-8.40625-.421875-10.335938 3.363281l-13.851562 27.195313c-1.925782 3.78125-.421875 8.410156 3.359375 10.335937 1.117187.570313 2.308593.839844 3.480469.839844 2.800781 0 5.496093-1.535156 6.855468-4.199219l13.851563-27.199219c1.925781-3.78125.421875-8.410156-3.359375-10.335937zm0 0" fill="#97bffd" data-original="#97bffd" style=""/><path d="m119.15625 174.265625c-3.78125-1.921875-8.40625-.421875-10.335938 3.363281l-13.851562 27.195313c-1.925781 3.78125-.421875 8.410156 3.363281 10.335937 1.113281.570313 2.304688.839844 3.480469.839844 2.796875 0 5.492188-1.535156 6.851562-4.199219l13.851563-27.199219c1.925781-3.78125.421875-8.410156-3.359375-10.335937zm0 0" fill="#97bffd" data-original="#97bffd" style=""/><path d="m16.003906 426.066406 13.851563-27.199218c1.925781-3.78125.421875-8.410157-3.359375-10.335938-3.78125-1.921875-8.410156-.421875-10.335938 3.359375l-13.851562 27.199219c-1.925782 3.78125-.421875 8.410156 3.359375 10.335937 1.117187.570313 2.308593.839844 3.480469.839844 2.800781 0 5.496093-1.535156 6.855468-4.199219zm0 0" fill="#97bffd" data-original="#97bffd" style=""/></g><path xmlns="http://www.w3.org/2000/svg" d="m361.578125 388.539062c-3.78125-1.933593-8.410156-.441406-10.34375 3.339844l-13.929687 27.195313c-1.933594 3.777343-.441407 8.410156 3.335937 10.34375 1.121094.574219 2.320313.847656 3.496094.847656 2.792969 0 5.488281-1.527344 6.847656-4.183594l13.929687-27.199219c1.933594-3.777343.441407-8.40625-3.335937-10.34375zm0 0" fill="#5596fb" data-original="#5596fb" style="" class=""/><path xmlns="http://www.w3.org/2000/svg" d="m425.367188 388.546875c-3.773438-1.941406-8.40625-.457031-10.351563 3.3125l-14.007813 27.199219c-1.941406 3.773437-.457031 8.40625 3.3125 10.351562 1.125.578125 2.328126.855469 3.515626.855469 2.785156 0 5.472656-1.523437 6.835937-4.167969l14.007813-27.199218c1.945312-3.773438.460937-8.40625-3.3125-10.351563zm0 0" fill="#97bffd" data-original="#97bffd" style=""/><path xmlns="http://www.w3.org/2000/svg" d="m490.222656 388.546875c-3.773437-1.941406-8.40625-.457031-10.351562 3.3125l-14.007813 27.199219c-1.945312 3.773437-.460937 8.40625 3.3125 10.351562 1.125.578125 2.328125.855469 3.511719.855469 2.785156 0 5.476562-1.523437 6.839844-4.167969l14.007812-27.199218c1.941406-3.773438.460938-8.40625-3.3125-10.351563zm0 0" fill="#97bffd" data-original="#97bffd" style=""/><path xmlns="http://www.w3.org/2000/svg" d="m192.605469 470.257812c-3.789063-1.914062-8.410157-.402343-10.328125 3.386719l-13.773438 27.199219c-1.917968 3.785156-.402344 8.40625 3.382813 10.324219 1.117187.566406 2.300781.832031 3.46875.832031 2.804687 0 5.507812-1.542969 6.859375-4.214844l13.773437-27.199218c1.917969-3.785157.402344-8.410157-3.382812-10.328126zm0 0" fill="#5596fb" data-original="#5596fb" style="" class=""/><path xmlns="http://www.w3.org/2000/svg" d="m86.292969 470.257812c-3.785157-1.914062-8.410157-.402343-10.328125 3.386719l-13.769532 27.199219c-1.917968 3.785156-.402343 8.40625 3.382813 10.324219 1.113281.566406 2.296875.832031 3.464844.832031 2.804687 0 5.507812-1.542969 6.863281-4.214844l13.773438-27.199218c1.914062-3.785157.402343-8.410157-3.386719-10.328126zm0 0" fill="#97bffd" data-original="#97bffd" style=""/><path xmlns="http://www.w3.org/2000/svg" d="m38.453125 470.257812c-3.789063-1.914062-8.410156-.402343-10.328125 3.386719l-13.773438 27.199219c-1.914062 3.785156-.402343 8.40625 3.386719 10.324219 1.113281.566406 2.296875.832031 3.464844.832031 2.804687 0 5.507813-1.542969 6.863281-4.214844l13.769532-27.199218c1.917968-3.785157.402343-8.410157-3.382813-10.328126zm0 0" fill="#97bffd" data-original="#97bffd" style=""/><path xmlns="http://www.w3.org/2000/svg" d="m256.160156 470.265625c-3.78125-1.921875-8.410156-.417969-10.335937 3.363281l-13.851563 27.199219c-1.925781 3.78125-.421875 8.40625 3.359375 10.332031 1.117188.570313 2.308594.839844 3.480469.839844 2.800781 0 5.496094-1.535156 6.855469-4.199219l13.851562-27.199219c1.925781-3.78125.421875-8.40625-3.359375-10.335937zm0 0" fill="#5596fb" data-original="#5596fb" style="" class=""/><path xmlns="http://www.w3.org/2000/svg" d="m319.714844 470.273438c-3.773438-1.929688-8.40625-.441407-10.34375 3.339843l-13.929688 27.199219c-1.933594 3.777344-.441406 8.40625 3.335938 10.34375 1.125.574219 2.320312.84375 3.5.84375 2.789062 0 5.484375-1.527344 6.84375-4.183594l13.929687-27.199218c1.9375-3.777344.441407-8.40625-3.335937-10.34375zm0 0" fill="#5596fb" data-original="#5596fb" style="" class=""/><path xmlns="http://www.w3.org/2000/svg" d="m383.269531 470.28125c-3.769531-1.941406-8.40625-.457031-10.347656 3.316406l-14.011719 27.195313c-1.941406 3.773437-.457031 8.410156 3.316406 10.351562 1.125.578125 2.324219.855469 3.511719.855469 2.785157 0 5.472657-1.519531 6.835938-4.167969l14.011719-27.199219c1.941406-3.773437.457031-8.40625-3.316407-10.351562zm0 0" fill="#97bffd" data-original="#97bffd" style=""/><path xmlns="http://www.w3.org/2000/svg" d="m508.582031 133.589844c-.152343.800781-.480469 1.601562-1.011719 2.347656-21.628906 30.410156-60.15625 46.453125-98.78125 37.601562-50.019531-11.464843-82.109374-61.003906-72.019531-111.320312 5.289063-26.351562 20.882813-47.839844 41.660157-61.261719.6875-.4375 1.40625-.714843 2.121093-.847656 4.078125-.8125 8.105469 3.042969 6.792969 7.519531-15.441406 52.707032 17.140625 107.296875 70.011719 119.414063 15.007812 3.445312 30 3.125 43.984375-.328125 4.4375-1.09375 8.003906 2.910156 7.242187 6.875zm0 0" fill="#cdcdcd" data-original="#f29500" style="" class=""/><path xmlns="http://www.w3.org/2000/svg" d="m508.582031 133.589844c-20.152343 11.773437-44.671875 16.199218-69.210937 10.574218-50.019532-11.453124-82.109375-61.003906-72.015625-111.320312 2.417969-12.027344 6.976562-23.042969 13.195312-32.734375 4.078125-.8125 8.105469 3.042969 6.792969 7.519531-15.441406 52.707032 17.140625 107.296875 70.011719 119.414063 15.007812 3.445312 30 3.125 43.984375-.328125 4.4375-1.09375 8.003906 2.910156 7.242187 6.875zm0 0" fill="#e0e0e0" data-original="#ffb52d" style="" class=""/><path xmlns="http://www.w3.org/2000/svg" d="m335.777344 105.351562c0 8.554688-1.976563 16.148438-5.214844 22.707032-9.34375 19.003906-29.140625 29.363281-41.558594 29.363281h-267.285156c-11.492188 0-21.28125-8.929687-21.703125-20.410156-.441406-12.066407 9.207031-21.996094 21.183594-21.996094h35.550781c2.039062 0 3.472656-1.992187 2.84375-3.929687-10.175781-31.257813 17.351562-63.773438 50.902344-56.964844 1.523437.308594 3.035156-.582032 3.476562-2.074219 8.707032-29.386719 35.925782-50.832031 68.140625-50.832031 8.996094 0 17.601563 1.667968 25.519531 4.722656 22.402344 8.621094 39.339844 28.269531 44.152344 52.289062.488282 2.425782 3.21875 3.601563 5.34375 2.332032 33.503906-20.0625 78.648438 3.464844 78.648438 44.792968zm0 0" fill="#2476ed" data-original="#2476ed" style="" class=""/><path xmlns="http://www.w3.org/2000/svg" d="m335.777344 105.351562c0 8.554688-1.976563 16.148438-5.214844 22.707032h-222.632812c-11.492188 0-21.285157-8.929688-21.707032-20.414063-.441406-12.0625 9.207032-21.996093 21.183594-21.996093h35.554688c2.035156 0 3.472656-1.988282 2.839843-3.925782-10.167969-31.257812 17.351563-63.773437 50.902344-56.957031 1.523437.308594 3.035156-.574219 3.476563-2.0625 1.761718-5.953125 4.28125-11.582031 7.453124-16.765625 22.402344 8.621094 39.339844 28.269531 44.152344 52.289062.488282 2.425782 3.21875 3.601563 5.34375 2.332032 33.503906-20.0625 78.648438 3.464844 78.648438 44.792968zm0 0" fill="#5596fb" data-original="#5596fb" style="" class=""/><path xmlns="http://www.w3.org/2000/svg" d="m507.261719 229.09375c0 11.710938-9.488281 21.199219-21.199219 21.199219h-267.804688c-16.703124 0-46.773437-18.738281-46.773437-52.058594 0-25.65625 17.398437-44.457031 38.605469-50.214844 14.507812-3.945312 30.800781-1.792969 44.53125 8.421875 4.292968-35.132812 34.230468-62.347656 70.53125-62.347656 33.195312 0 61.085937 22.769531 68.882812 53.546875 36.1875-9.582031 66.476563 27.027344 52.152344 60.253906h39.875c8.300781 0 15.492188 4.765625 18.964844 11.722657 1.433594 2.847656 2.234375 6.078124 2.234375 9.476562zm0 0" fill="#0a4499" data-original="#0a4499" style=""/><path xmlns="http://www.w3.org/2000/svg" d="m505.027344 219.617188h-250.570313c-16.691406 0-46.761719-18.738282-46.761719-52.058594 0-6.230469.847657-12.847656 2.394532-19.539063 14.507812-3.945312 30.800781-1.792969 44.53125 8.421875 4.292968-35.132812 34.230468-62.347656 70.53125-62.347656 33.195312 0 61.085937 22.769531 68.882812 53.546875 36.1875-9.582031 66.476563 27.027344 52.152344 60.253906h39.875c8.300781 0 15.492188 4.765625 18.964844 11.722657zm0 0" fill="#0956c6" data-original="#0956c6" style="" class=""/><path xmlns="http://www.w3.org/2000/svg" d="m420.480469 289.933594-44.457031 45.746094-41.128907 42.316406c-4.117187 4.242187-10.960937-.738282-8.183593-5.964844l23.226562-43.789062c4.199219-7.921876-1.539062-17.46875-10.511719-17.46875h-61.867187c-7.171875 0-11.453125-7.980469-7.488282-13.957032l58.535157-88.378906c3.984375-6.003906 10.714843-9.621094 17.929687-9.621094 5.132813 0 9.640625 1.699219 13.1875 4.476563 5.203125 4.070312 8.347656 10.429687 8.347656 17.082031 0 4.015625-1.144531 8.125-3.667968 11.894531l-28.371094 42.40625h77.992188c7.953124 0 11.988281 9.558594 6.457031 15.257813zm0 0" fill="#FFB112" data-original="#f29500" style="" class=""/><path xmlns="http://www.w3.org/2000/svg" d="m420.480469 289.933594-44.457031 45.746094 13.320312-25.113282c4.199219-7.929687-1.539062-17.476562-10.515625-17.476562h-61.863281c-7.160156 0-11.453125-7.972656-7.488282-13.957032l50.246094-75.839843c5.203125 4.070312 8.347656 10.429687 8.347656 17.082031 0 4.015625-1.144531 8.125-3.667968 11.894531l-28.371094 42.40625h77.992188c7.953124 0 11.988281 9.558594 6.457031 15.257813zm0 0" fill="#FFDF1B" data-original="#ffb52d" style="" class=""/></g></svg>