<svg xmlns="http://www.w3.org/2000/svg" version="1.1" xmlns:xlink="http://www.w3.org/1999/xlink" xmlns:svgjs="http://svgjs.com/svgjs" width="512" height="512" x="0" y="0" viewBox="0 0 512 512" style="enable-background:new 0 0 512 512" xml:space="preserve" class=""><g><linearGradient xmlns="http://www.w3.org/2000/svg" id="SVGID_1_" gradientUnits="userSpaceOnUse" x1="256" x2="256" y1="512" y2="0"><stop offset="0" stop-color="#5558ff"></stop><stop offset="1" stop-color="#00c0ff"></stop></linearGradient><g xmlns="http://www.w3.org/2000/svg"><g><g><path d="m467.354 331.137c-1.671-6.236-7.145-10.704-13.59-11.091l-63.427-3.807-22.914-13.229 29.785-3.589c8.225-.991 14.089-8.462 13.098-16.687s-8.462-14.088-16.687-13.098l-69.497 8.373-16.795-9.697 1.706-1.706c5.858-5.858 5.858-15.355 0-21.213l-1.706-1.706 16.795-9.697 69.497 8.373c8.23.992 15.696-4.88 16.687-13.098.991-8.225-4.873-15.696-13.098-16.687l-29.785-3.589 22.914-13.229 63.427-3.807c6.445-.387 11.919-4.854 13.59-11.091l10.981-40.981c1.03-3.843.491-7.937-1.499-11.382-1.989-3.445-5.265-5.959-9.108-6.989l-40.981-10.981c-6.237-1.672-12.842.836-16.4 6.224l-35.01 53.026-22.914 13.229 11.785-27.589c3.254-7.618-.284-16.432-7.902-19.687-7.617-3.254-16.432.283-19.687 7.902l-27.497 64.374-23.756 13.716-14.366-14.364v-21.36l42-56c4.971-6.627 3.627-16.03-3-21-6.626-4.971-16.029-3.627-21 3l-18 24v-27.459l28.417-56.833c2.887-5.775 1.755-12.75-2.81-17.315l-30-30c-5.857-5.858-15.355-5.858-21.213 0l-30 30c-4.565 4.565-5.697 11.54-2.81 17.315l28.416 56.833v27.459l-18-24c-4.97-6.627-14.372-7.971-21-3-6.627 4.97-7.971 14.373-3 21l42 56v21.36l-14.365 14.365-23.756-13.716-27.497-64.374c-3.254-7.618-12.069-11.156-19.687-7.902-7.619 3.254-11.156 12.068-7.902 19.687l11.785 27.589-22.914-13.229-35.01-53.026c-3.557-5.388-10.163-7.895-16.4-6.224l-40.981 10.981c-3.843 1.03-7.119 3.543-9.108 6.989-1.989 3.445-2.528 7.54-1.499 11.382l10.981 40.981c1.671 6.236 7.145 10.704 13.59 11.091l63.427 3.807 22.914 13.229-29.785 3.589c-8.225.991-14.089 8.462-13.098 16.687.984 8.17 8.404 14.094 16.687 13.098l69.497-8.373 16.795 9.697-1.706 1.706c-5.858 5.858-5.858 15.355 0 21.213l1.706 1.706-16.795 9.697-69.497-8.373c-8.226-.991-15.695 4.873-16.687 13.098-.991 8.225 4.873 15.696 13.098 16.687l29.785 3.589-22.914 13.229-63.427 3.807c-6.445.387-11.919 4.854-13.59 11.091l-10.981 40.981c-1.03 3.843-.491 7.937 1.499 11.382 1.989 3.445 5.265 5.959 9.108 6.989l40.981 10.981c6.196 1.661 12.82-.802 16.4-6.224l35.01-53.026 22.914-13.229-11.785 27.589c-3.254 7.618.284 16.432 7.902 19.687 7.681 3.281 16.46-.348 19.687-7.902l27.497-64.374 23.756-13.716 14.365 14.364v21.36l-42 56c-4.971 6.627-3.627 16.03 3 21 6.628 4.971 16.03 3.627 21-3l18-24v27.459l-28.417 56.833c-2.887 5.775-1.755 12.75 2.81 17.315l30 30c2.929 2.929 6.768 4.393 10.607 4.393s7.678-1.464 10.606-4.393l30-30c4.565-4.565 5.697-11.54 2.81-17.315l-28.416-56.833v-27.459l18 24c4.946 6.596 14.341 7.993 21 3 6.627-4.97 7.971-14.373 3-21l-42-56v-21.36l14.365-14.365 23.756 13.716 27.497 64.374c3.245 7.595 12.048 11.166 19.687 7.902 7.619-3.254 11.156-12.068 7.902-19.687l-11.785-27.589 22.914 13.229 35.01 53.026c3.576 5.416 10.195 7.887 16.4 6.224l40.981-10.981c3.843-1.03 7.119-3.543 9.108-6.989 1.989-3.445 2.528-7.54 1.499-11.382zm-37.928-188.83 16.049 4.3-4.3 16.049-26.224 1.574zm-358.601 20.349-4.3-16.049 16.049-4.3 14.475 21.923zm11.749 207.038-16.049-4.3 4.3-16.049 26.224-1.574zm173.426-333.481 11.749 11.749-11.749 23.497-11.749-23.497zm0 439.574-11.749-11.749 11.749-23.497 11.749 23.497zm0-198.574-21.213-21.213c3.881-3.881 17.273-17.273 21.213-21.213 3.901 3.901 12.996 12.996 21.213 21.213zm173.426 92.481-14.475-21.923 26.224 1.574 4.3 16.049z" fill="url(#SVGID_1_)" data-original="url(#SVGID_1_)" style=""></path></g></g></g></g></svg>