<svg xmlns="http://www.w3.org/2000/svg" xmlns:xlink="http://www.w3.org/1999/xlink" xmlns:svgjs="http://svgjs.com/svgjs" version="1.1" width="512" height="512" x="0" y="0" viewBox="0 0 497 497" style="enable-background:new 0 0 512 512" xml:space="preserve" class=""><g>

<path xmlns="http://www.w3.org/2000/svg" d="m485.2 103.367a12 12 0 0 0 -11.935-1.7 56.989 56.989 0 0 1 -69.38-83.555 12 12 0 0 0 -9.685-18.471c-1.144-.04-2.291-.076-3.445-.076a99.993 99.993 0 1 0 98.877 115.013 12 12 0 0 0 -4.432-11.211z" fill="#e0e0e0" data-original="#cdcdcd" style=""/>
<path xmlns="http://www.w3.org/2000/svg" d="m295.88 4.914c-12.642-3.206-25.876-4.914-39.502-4.914-69.776 0-129.126 44.596-151.133 106.835v.007c-57.35.76-105.245 47.61-105.245 106.853 0 59.01 47.837 106.847 106.847 106.847h227.356z" fill="#a1a1a1" data-original="#d4d4d5" style="" class=""/><path xmlns="http://www.w3.org/2000/svg" d="m416.626 160.267c-.004-75.047-51.455-137.779-120.746-155.353-69.387 17.617-120.719 80.491-120.719 155.359 0 88.107 71.092 159.6 159.042 160.269h82.662c44.258 0 80.135-35.878 80.135-80.136 0-44.837-36.644-80.373-80.374-80.139z" fill="#c1c1c1" data-original="#efedee" style="" class=""/>
<path xmlns="http://www.w3.org/2000/svg" stroke="null" d="m209.274 320.542l-22.34531,5.66078l-15.74303,-8.71077l15.74303,-8.70467l22.05425,5.66078c3.40239,0.85552 6.88359,-1.09266 7.77678,-4.35157c0.88682,-3.2368 -1.1137,-6.5529 -4.48425,-7.43358l-9.75023,-2.50099l8.744,-4.83728c3.03381,-1.70418 4.05119,-5.44118 2.27198,-8.34782c-1.76249,-2.87843 -5.61227,-3.86662 -8.64051,-2.21734l-8.744,4.83728l2.6111,-9.33906c0.9107,-3.25434 -1.10494,-6.60017 -4.50256,-7.47247c-3.39761,-0.8723 -6.89076,1.05835 -7.80146,4.31268l-5.90363,21.12422l-15.74303,8.70467l0,-17.40933l16.14424,-15.46344c2.5299,-2.34087 2.59996,-6.20215 0.15603,-8.62537c-2.44393,-2.42322 -6.47521,-2.49032 -9.00511,-0.14945c-0.05254,0.0488 -0.10508,0.09836 -0.15603,0.14945l-7.13913,6.83807l0,-9.67456c0,-3.36871 -2.85151,-6.09998 -6.36854,-6.09998s-6.36854,2.73126 -6.36854,6.09998l0,9.67456l-7.13913,-6.83807c-2.44393,-2.42322 -6.47521,-2.49032 -9.00511,-0.14945c-2.5299,2.34087 -2.59996,6.20215 -0.15603,8.62537c0.05095,0.05109 0.10349,0.10065 0.15603,0.14945l16.14424,15.46344l0,17.40933l-15.74303,-8.70467l-5.91,-21.12422c-0.9107,-3.25434 -4.40384,-5.18498 -7.80146,-4.31268c-3.39761,0.8723 -5.41326,4.21813 -4.50256,7.47247l2.6111,9.33906l-8.744,-4.83728c-3.05769,-1.66453 -6.94569,-0.6405 -8.6835,2.28902c-1.72189,2.9013 -0.69019,6.58874 2.31496,8.27614l8.744,4.83728l-9.75023,2.50099c-3.4016,0.85552 -5.43555,4.19068 -4.54236,7.44883c0.89319,3.25815 4.37519,5.20633 7.77678,4.35081c0.01911,-0.00457 0.03901,-0.00991 0.05811,-0.01525l22.05425,-5.66078l15.74939,8.70467l-15.74303,8.70467l-22.05425,-5.65468c-3.4016,-0.85552 -6.88359,1.09266 -7.77678,4.35081c-0.88682,3.2368 1.1137,6.55366 4.48425,7.43435l9.75023,2.50099l-8.744,4.83728c-3.05769,1.66453 -4.12761,5.38857 -2.38979,8.31732c1.73781,2.92875 5.62581,3.95355 8.6835,2.28902c0.02468,-0.01372 0.04936,-0.02745 0.07403,-0.04117l8.744,-4.83728l-2.6111,9.33906c-0.9115,3.25357 1.10415,6.59941 4.50096,7.47171c0.0008,0 0.0008,0 0.00159,0c0.53973,0.1403 1.09698,0.21045 1.65582,0.2074c2.88017,-0.00229 5.39972,-1.85592 6.14564,-4.52008l5.90363,-21.12422l15.74303,-8.71077l0,17.40933l-16.14424,15.46344c-2.5299,2.3401 -2.59996,6.20215 -0.15603,8.62537c2.44313,2.42322 6.47521,2.49032 9.00511,0.14945c0.05334,-0.0488 0.10508,-0.09912 0.15603,-0.14945l7.13913,-6.83807l0,9.67456c0,3.36871 2.85151,6.09998 6.36854,6.09998c3.51703,0 6.36854,-2.73126 6.36854,-6.09998l0,-9.67456l7.13913,6.83807c2.44393,2.42322 6.47521,2.49032 9.00511,0.14945c2.5299,-2.34087 2.59996,-6.20215 0.15603,-8.62537c-0.05095,-0.05032 -0.10269,-0.10065 -0.15603,-0.14945l-16.14424,-15.46344l0,-17.40933l15.74303,8.70467l5.90363,21.12422c0.74592,2.66416 3.26547,4.51779 6.14564,4.52008c0.55884,0.00305 1.11609,-0.0671 1.65582,-0.2074c3.39761,-0.8723 5.41326,-4.21661 4.50256,-7.47095c0,-0.00076 0,-0.00076 0,-0.00152l-2.6111,-9.33906l8.744,4.83728c3.03381,1.70418 6.93613,0.72971 8.71534,-2.17617c1.77921,-2.90588 0.76184,-6.64364 -2.27198,-8.34782c-0.02468,-0.01372 -0.04936,-0.02745 -0.07403,-0.04117l-8.744,-4.83728l9.75023,-2.50099c3.39363,-0.88678 5.39415,-4.24025 4.46833,-7.49001c-0.91946,-3.22841 -4.38155,-5.14457 -7.76086,-4.29515l0.1712,0.34475l0.11986,-0.33712z" fill="#5558ff" id="svg_1"/>
<path xmlns="http://www.w3.org/2000/svg" d="M 438.5796313906987 414.331 L 410.51 421.755 L 390.734 410.331 L 410.51 398.915 L 438.214 406.339 C 442.488 407.461 446.861 404.906 447.983 400.632 C 449.097 396.387 446.584 392.038 442.35 390.883 L 430.102 387.603 L 441.086 381.259 C 444.897 379.024 446.175 374.123 443.94 370.311 C 441.726 366.536 436.89 365.24 433.086 367.403 L 422.102 373.747 L 425.382 361.499 C 426.526 357.231 423.994 352.843 419.726 351.699 C 415.458 350.555 411.07 353.087 409.926 357.355 L 402.51 385.059 L 382.734 396.475 L 382.734 373.643 L 403.014 353.363 C 406.192 350.293 406.28 345.229 403.21 342.051 C 400.14 338.873 395.076 338.785 391.898 341.855 C 391.832 341.919 391.766 341.984 391.702 342.051 L 382.734 351.019 L 382.734 338.331 C 382.734 333.913 379.152 330.331 374.734 330.331 S 366.734 333.913 366.734 338.331 L 366.734 351.019 L 357.766 342.051 C 354.696 338.873 349.632 338.785 346.454 341.855 C 343.276 344.925 343.188 349.989 346.258 353.167 C 346.322 353.234 346.388 353.299 346.454 353.363 L 366.734 373.643 L 366.734 396.475 L 346.958 385.059 L 339.534 357.355 C 338.39 353.087 334.002 350.555 329.734 351.699 C 325.466 352.843 322.934 357.231 324.078 361.499 L 327.358 373.747 L 316.374 367.403 C 312.533 365.22 307.649 366.563 305.466 370.405 C 303.303 374.21 304.599 379.046 308.374 381.259 L 319.358 387.603 L 307.11 390.883 C 302.837 392.005 300.282 396.379 301.404 400.652 C 302.526 404.925 306.9 407.48 311.173 406.358 C 311.197 406.352 311.222 406.345 311.246 406.338 L 338.95 398.914 L 358.734 410.33 L 338.958 421.746 L 311.254 414.33 C 306.981 413.208 302.607 415.763 301.485 420.036 C 300.371 424.281 302.884 428.631 307.118 429.786 L 319.366 433.066 L 308.382 439.41 C 304.541 441.593 303.197 446.477 305.38 450.318 C 307.563 454.159 312.447 455.503 316.288 453.32 C 316.319 453.302 316.35 453.284 316.381 453.266 L 327.365 446.922 L 324.085 459.17 C 322.94 463.437 325.472 467.825 329.739 468.969 C 329.74 468.969 329.74 468.969 329.741 468.969 C 330.419 469.153 331.119 469.245 331.821 469.241 C 335.439 469.238 338.604 466.807 339.541 463.313 L 346.957 435.609 L 366.733 424.185 L 366.733 447.017 L 346.453 467.297 C 343.275 470.366 343.187 475.431 346.257 478.609 C 349.326 481.787 354.391 481.875 357.569 478.805 C 357.636 478.741 357.701 478.675 357.765 478.609 L 366.733 469.641 L 366.733 482.329 C 366.733 486.747 370.315 490.329 374.733 490.329 C 379.151 490.329 382.733 486.747 382.733 482.329 L 382.733 469.641 L 391.701 478.609 C 394.771 481.787 399.835 481.875 403.013 478.805 C 406.191 475.735 406.279 470.671 403.209 467.493 C 403.145 467.427 403.08 467.361 403.013 467.297 L 382.733 447.017 L 382.733 424.185 L 402.509 435.601 L 409.925 463.305 C 410.862 466.799 414.027 469.23 417.645 469.233 C 418.347 469.237 419.047 469.145 419.725 468.961 C 423.993 467.817 426.525 463.431 425.381 459.163 C 425.381 459.162 425.381 459.162 425.381 459.161 L 422.101 446.913 L 433.085 453.257 C 436.896 455.492 441.798 454.214 444.033 450.403 C 446.268 446.592 444.99 441.69 441.179 439.455 C 441.148 439.437 441.117 439.419 441.086 439.401 L 430.102 433.057 L 442.35 429.777 C 446.613 428.614 449.126 424.216 447.963 419.954 C 446.808 415.72 442.459 413.207 438.214 414.321 L 438.42905806782096 414.77312602561 L 438.5796313906987 414.331 z" fill="#0097ff" id="svg_1"/><circle xmlns="http://www.w3.org/2000/svg" cx="220.265" cy="464.207" r="20.181" fill="#5558ff" data-original="#dfebfa" style="" class=""/>
<path d="m215.265 464.207c0-8.415 5.154-15.62 12.474-18.649-2.375-.983-4.976-1.532-7.707-1.532-11.146 0-20.181 9.035-20.181 20.181s9.035 20.181 20.181 20.181c2.731 0 5.332-.549 7.707-1.532-7.32-3.028-12.474-10.234-12.474-18.649z" fill="#0097ff" data-original="#b1dbfc" style="" class=""/>
<circle xmlns="http://www.w3.org/2000/svg" cx="131.323" cy="419.958" r="15.415" fill="#5558ff" data-original="#dfebfa" style="" class=""/><path xmlns="http://www.w3.org/2000/svg" d="m131.323 419.958c0-5.702 3.104-10.669 7.707-13.335-2.269-1.314-4.896-2.079-7.707-2.079-8.513 0-15.415 6.901-15.415 15.415 0 8.513 6.901 15.414 15.415 15.414 2.811 0 5.438-.765 7.707-2.079-4.602-2.667-7.707-7.634-7.707-13.336z" fill="#0097ff" data-original="#b1dbfc" style="" class=""/>
<circle xmlns="http://www.w3.org/2000/svg" cx="265.87" cy="353.486" r="15.601" fill="#5558ff" data-original="#dfebfa" style="" class=""/>
<path d="m265.87 353.486c0-5.81 3.183-10.869 7.894-13.554-2.275-1.297-4.901-2.047-7.707-2.047-8.616 0-15.601 6.985-15.601 15.601s6.985 15.601 15.601 15.601c2.806 0 5.432-.751 7.707-2.047-4.711-2.685-7.894-7.744-7.894-13.554z" fill="#0097ff" data-original="#b1dbfc" style="" class=""/>
</g></svg>