<svg xmlns="http://www.w3.org/2000/svg" xmlns:xlink="http://www.w3.org/1999/xlink" xmlns:svgjs="http://svgjs.com/svgjs" version="1.1" width="512" height="512" x="0" y="0" viewBox="0 0 497 497" style="enable-background:new 0 0 512 512" xml:space="preserve"><g><g xmlns="http://www.w3.org/2000/svg"><path d="m250.034 342.448c0 41.506 33.647 75.153 75.153 75.153 38.452 0 70.139-28.885 74.596-66.137 6.352 3.085 13.482 4.818 21.017 4.818 26.606 0 48.174-21.568 48.174-48.174 0-12.15-4.508-23.241-11.929-31.715 24.014-15.232 39.955-42.048 39.955-72.59 0-37.456-23.974-69.306-57.411-81.061.12-1.601.201-3.213.201-4.846 0-35.313-28.627-63.94-63.94-63.94-11.609 0-22.484 3.109-31.869 8.517-15.479-22.576-41.457-37.389-70.898-37.389-44.981 0-81.882 34.573-85.593 78.594-1.033-.05-2.072-.079-3.117-.079-35.313 0-63.94 28.627-63.94 63.94s28.627 63.94 63.94 63.94z" fill="#c8c6cc" data-original="#c8c6cc" style=""/><path d="m201.123 179.292c0-59.506 23.324-113.562 61.326-153.531-40.038 4.947-71.545 37.423-74.959 77.918-1.033-.05-2.072-.079-3.117-.079-35.313 0-63.94 28.627-63.94 63.94s28.627 63.94 63.94 63.94l65.661 110.969c0 41.506 33.647 75.153 75.153 75.153 19.959 0 38.083-7.795 51.534-20.49-100.377-21.677-175.598-110.957-175.598-217.82z" fill="#948ea3" data-original="#948ea3" style=""/><path d="m194.077 208.934-135.675-147.148c-13.673-14.734-36.417-14.177-49.489 0-12.6 13.666-11.737 34.959 1.929 47.56l147.148 135.675c9.682 8.876 24.791 9.066 34.623 0 10.37-9.561 11.025-25.718 1.464-36.087z" fill="#e4996d" data-original="#e4996d" style=""/><path d="m177.99 225.021-147.148-135.676c-10.305-9.501-13.326-23.944-8.789-36.333-4.878 1.788-9.405 4.722-13.14 8.773-12.6 13.666-11.737 34.959 1.929 47.56l147.148 135.676c9.682 8.876 24.791 9.065 34.623 0 4.129-3.807 6.712-8.661 7.729-13.778-7.808 1.547-16.181-.565-22.352-6.222z" fill="#af602d" data-original="#af602d" style=""/><path d="m352.871 223.728c-9.685-9.685-23.003-14.873-36.682-14.178-16.367.831-43.74-1.929-76.567-11.601-26.153-7.705-54.43-.371-73.709 18.907-19.279 19.279-26.613 47.556-18.907 73.709 9.672 32.827 12.433 60.2 11.601 76.567-.695 13.679 4.494 26.997 14.178 36.682 8.724 8.724 21.104 12.732 33.286 10.775 11.575-1.859 20.651-10.935 22.511-22.511 1.859-11.575 10.935-20.651 22.511-22.511 11.575-1.859 20.651-10.935 22.511-22.511 1.859-11.575 10.935-20.651 22.511-22.511 11.575-1.859 20.652-10.936 22.511-22.511 1.859-11.575 10.935-20.651 22.51-22.51h.001c11.575-1.859 20.651-10.935 22.511-22.511 1.955-12.18-2.053-24.561-10.777-33.285z" fill="#fffcdc" data-original="#fffcdc" style=""/><path d="m226.071 394.589c-12.181 1.957-24.562-2.051-33.286-10.775-9.685-9.685-14.873-23.003-14.178-36.682.831-16.367-1.929-43.74-11.601-76.567-6.349-21.551-2.478-44.539 9.865-62.752-3.889 2.636-7.565 5.65-10.958 9.042-19.279 19.279-26.613 47.557-18.907 73.709 9.672 32.827 12.433 60.2 11.601 76.567-.695 13.679 4.493 26.997 14.178 36.682 8.724 8.724 21.104 12.732 33.286 10.775 10.869-1.746 19.533-9.856 22.089-20.422-.686.168-1.383.31-2.089.423z" fill="#f8ea69" data-original="#f8ea69" style=""/><g/><circle cx="124.976" cy="54.886" fill="#948ea3" r="19.02" data-original="#948ea3" style=""/><circle cx="251.022" cy="452.896" fill="#948ea3" r="19.02" data-original="#948ea3" style=""/><circle cx="67.416" cy="281.522" fill="#c8c6cc" r="25.676" data-original="#c8c6cc" style=""/><circle cx="431.317" cy="427.22" fill="#c8c6cc" r="25.676" data-original="#c8c6cc" style=""/></g></g></svg>