<svg xmlns="http://www.w3.org/2000/svg" xmlns:xlink="http://www.w3.org/1999/xlink" xmlns:svgjs="http://svgjs.com/svgjs" version="1.1" width="512" height="512" x="0" y="0" viewBox="0 0 512.004 512.004" style="enable-background:new 0 0 512 512" xml:space="preserve"><g><g xmlns="http://www.w3.org/2000/svg"><g><g><g><g><path d="m452 181.002c0 24.51-11.82 46.31-30.05 60-12.54 9.42-28.1 15-44.95 15h-362c-8.28 0-15-6.72-15-15s6.72-15 15-15h362c24.82 0 45-20.19 45-45s-20.18-45-45-45c-24.81 0-45 20.19-45 45 0 8.28-6.71 15-15 15-8.28 0-15-6.72-15-15 0-41.36 33.65-75 75-75 41.36 0 75 33.64 75 75z" fill="#ffeb95" data-original="#ffeb95" style=""/></g></g></g><g><path d="m421.95 241.002c-12.54 9.42-28.1 15-44.95 15h-362c-8.28 0-15-6.72-15-15z" fill="#ffda2d" data-original="#ffda2d" style=""/></g><g><g><g><path d="m452.004 406.002c-25.387 0-48.125-16.075-56.582-40.001-2.761-7.811 1.333-16.381 9.144-19.141 7.811-2.761 16.38 1.333 19.142 9.144 4.228 11.962 15.6 19.999 28.297 19.999 16.542 0 30-13.458 30-30s-13.458-30-30-30h-197c-8.284 0-15-6.716-15-15s6.716-15 15-15h197c33.084 0 60 26.916 60 60s-26.917 59.999-60.001 59.999z" fill="#ffda2d" data-original="#ffda2d" style=""/></g></g></g><g><g><g><path d="m317.004 376.002h-152c-8.284 0-15-6.716-15-15s6.716-15 15-15h152c8.284 0 15 6.716 15 15s-6.716 15-15 15z" fill="#ffda2d" data-original="#ffda2d" style=""/></g></g></g><g><g><path d="m225.004 196.002h-150c-8.284 0-15-6.716-15-15s6.716-15 15-15h150c8.284 0 15 6.716 15 15s-6.716 15-15 15z" fill="#ffeb95" data-original="#ffeb95" style=""/></g></g><g><g><path d="m195.004 316.002h-150c-8.284 0-15-6.716-15-15s6.716-15 15-15h150c8.284 0 15 6.716 15 15s-6.716 15-15 15z" fill="#ffda2d" data-original="#ffda2d" style=""/></g></g><g><g><circle cx="105.004" cy="361.002" fill="#ffda2d" r="15" data-original="#ffda2d" style=""/></g></g><g><g><circle cx="15.004" cy="181.002" fill="#ffeb95" r="15" data-original="#ffeb95" style=""/></g></g><g><g><circle cx="377.004" cy="181.002" fill="#ffeb95" r="15" data-original="#ffeb95" style=""/></g></g><g><g><circle cx="467" cy="241.002" fill="#ffeb95" r="15" data-original="#ffeb95" style=""/></g></g><g><path d="m482 241.002c0 8.28-6.71 15-15 15-8.28 0-15-6.72-15-15z" fill="#ffda2d" data-original="#ffda2d" style=""/></g><g><g><circle cx="497.004" cy="121.002" fill="#ffeb95" r="15" data-original="#ffeb95" style=""/></g></g><g><g><circle cx="437.004" cy="61.002" fill="#ffeb95" r="15" data-original="#ffeb95" style=""/></g></g><g><g><circle cx="255.004" cy="121.002" fill="#ffeb95" r="15" data-original="#ffeb95" style=""/></g></g><g><g><circle cx="316.004" cy="421.002" fill="#ffda2d" r="15" data-original="#ffda2d" style=""/></g></g><g><g><g><circle xmlns="http://www.w3.org/2000/svg" cx="87.004" cy="451.002" fill="#ffda2d" r="15" data-original="#ffda2d" style=""/>
<path xmlns="http://www.w3.org/2000/svg" d="m140.78125 69.175781c.144531-1.386719.21875-2.78125.21875-4.175781 0-22.054688-17.945312-40-40-40s-40 17.945312-40 40c0 7.675781 2.191406 15.074219 6.210938 21.40625-8.648438 5.804688-14.210938 15.671875-14.210938 26.59375 0 17.644531 14.355469 32 32 32 12.511719 0 23.535156-7.339844 28.769531-18.03125 3.554688 1.332031 7.355469 2.03125 11.230469 2.03125 17.644531 0 32-14.355469 32-32 0-11.621094-6.402344-22.226562-16.21875-27.824219zm0 0" fill="#f4f3f6" data-original="#f4f3f6" style=""/>
<path xmlns="http://www.w3.org/2000/svg" d="m108 98c-22.054688 0-40-17.945312-40-40 0-8.992188 2.984375-17.300781 8.011719-23.988281-9.714844 7.304687-16.011719 18.925781-16.011719 31.988281 0 22.054688 17.945312 40 40 40 13.0625 0 24.683594-6.296875 31.988281-16.011719-6.6875 5.027344-14.996093 8.011719-23.988281 8.011719zm0 0" fill="#e8e8ed" data-original="#e8e8ed" style=""/>
<path xmlns="http://www.w3.org/2000/svg" d="m452 440c-15.4375 0-28 12.5625-28 28s12.5625 28 28 28 28-12.5625 28-28-12.5625-28-28-28zm0 0" fill="#f4f3f6" data-original="#f4f3f6" style=""/>
<path xmlns="http://www.w3.org/2000/svg" d="m460 488c-15.4375 0-28-12.5625-28-28 0-5.679688 1.703125-10.964844 4.617188-15.382812-7.59375 5.015624-12.617188 13.621093-12.617188 23.382812 0 15.4375 12.5625 28 28 28 9.761719 0 18.367188-5.023438 23.382812-12.617188-4.417968 2.914063-9.703124 4.617188-15.382812 4.617188zm0 0" fill="#e8e8ed" data-original="#e8e8ed" style=""/>

<path xmlns="http://www.w3.org/2000/svg" d="m245.445312 418.695312c-3.53125-23.011718-23.460937-40.695312-47.445312-40.695312-26.46875 0-48 21.53125-48 48 0 4.652344.65625 9.207031 1.957031 13.601562-6.382812 7.257813-9.957031 16.613282-9.957031 26.398438 0 22.054688 17.945312 40 40 40 12.777344 0 24.574219-6.132812 32.007812-16.019531 6.851563 5.132812 15.269532 8.019531 23.992188 8.019531 22.054688 0 40-17.945312 40-40 0-19.511719-14.042969-35.808594-32.554688-39.304688zm0 0" fill="#f4f3f6" data-original="#f4f3f6" style="" class=""/>
<path xmlns="http://www.w3.org/2000/svg" d="m205.445312 459.695312c-26.46875 0-48-21.53125-48-48 0-4.761719.707031-9.359375 2.003907-13.703125-6.464844 8.175781-10.335938 18.492187-10.335938 29.703125 0 26.46875 21.53125 48 48 48 21.707031 0 40.082031-14.484375 45.996094-34.296875-8.796875 11.132813-22.40625 18.296875-37.664063 18.296875zm0 0" fill="#e8e8ed" data-original="#e8e8ed" style=""/><path xmlns="http://www.w3.org/2000/svg" d="m352 40c-15.4375 0-28 12.5625-28 28s12.5625 28 28 28 28-12.5625 28-28-12.5625-28-28-28zm0 0" fill="#f4f3f6" data-original="#f4f3f6" style=""/><path xmlns="http://www.w3.org/2000/svg" d="m360 88c-15.4375 0-28-12.5625-28-28 0-5.679688 1.703125-10.964844 4.617188-15.382812-7.59375 5.015624-12.617188 13.621093-12.617188 23.382812 0 15.4375 12.5625 28 28 28 9.761719 0 18.367188-5.023438 23.382812-12.617188-4.417968 2.914063-9.703124 4.617188-15.382812 4.617188zm0 0" fill="#e8e8ed" data-original="#e8e8ed" style=""/>
</g></g></g></g></g></g></svg>