<svg xmlns="http://www.w3.org/2000/svg" xmlns:xlink="http://www.w3.org/1999/xlink" xmlns:svgjs="http://svgjs.com/svgjs" version="1.1" width="512" height="512" x="0" y="0" viewBox="0 0 256 256" style="enable-background:new 0 0 512 512" xml:space="preserve" class=""><g><g xmlns="http://www.w3.org/2000/svg"><g><g><g><path d="m215.964 121.056c.008-14.118-7.6-27.144-19.904-34.082 1.952-20.571-13.154-38.828-33.741-40.778-2.351-.223-4.718-.223-7.07 0-10.636-18.821-34.528-25.463-53.364-14.835-6.208 3.503-11.342 8.632-14.847 14.835-20.586-1.951-38.858 13.143-40.81 33.714-.223 2.349-.223 4.715 0 7.064-18.836 10.628-25.483 34.5-14.847 53.321 3.506 6.203 8.639 11.333 14.847 14.835-1.952 20.571 13.154 38.828 33.741 40.778 2.351.223 4.718.223 7.07 0 10.636 18.821 34.528 25.463 53.364 14.835 6.208-3.503 11.342-8.632 14.847-14.835 20.587 1.951 38.859-13.144 40.811-33.714.223-2.349.223-4.715 0-7.064 12.301-6.937 19.908-19.959 19.903-34.074z" fill="#58595b" data-original="#58595b" style="" class=""/></g></g></g><g><g><path d="m215.964 121.056c.008-14.118-7.6-27.144-19.904-34.082 1.874-19.743-11.97-37.346-31.289-40.455 7.913 7.636 12.408 18.662 11.289 30.455 12.305 6.939 19.912 19.965 19.904 34.082.005 14.115-7.602 27.137-19.904 34.074.223 2.349.223 4.715 0 7.064-1.952 20.571-20.224 35.665-40.811 33.714-3.505 6.203-8.639 11.333-14.847 14.835-8.234 4.646-17.435 5.991-26.072 4.461 12.158 11.412 30.781 14.166 46.072 5.539 6.208-3.503 11.342-8.632 14.847-14.835 20.587 1.951 38.859-13.144 40.811-33.714.223-2.349.223-4.715 0-7.064 12.302-6.937 19.909-19.959 19.904-34.074z" fill="#414042" data-original="#414042" style="" class=""/></g></g><g><g><g><circle cx="67.018" cy="203.519" fill="#939598" r="26.181" data-original="#939598" style=""/></g><g><circle cx="99.893" cy="197.999" fill="#808285" r="22.122" data-original="#808285" style=""/></g></g></g><g><g><g/></g></g><g><g><ellipse cx="86.024" cy="118.484" fill="#808285" rx="33.166" ry="33.192" transform="matrix(.757 -.654 .654 .757 -56.528 85.055)" data-original="#808285" style=""/></g><g><ellipse cx="100.097" cy="88.813" fill="#939598" rx="33.166" ry="33.192" transform="matrix(.757 -.654 .654 .757 -33.709 87.037)" data-original="#939598" style=""/></g><g><path d="m125.195 67.133c-2.141-2.479-4.572-4.556-7.195-6.241 8.814 13.681 6.454 32.103-6.206 43.039-11.385 9.834-27.548 10.546-39.601 2.803.836 1.298 1.767 2.557 2.805 3.759 11.983 13.872 32.934 15.411 46.796 3.438s15.384-32.926 3.401-46.798z" fill="#808285" data-original="#808285" style=""/></g><g><ellipse cx="46.135" cy="88.789" fill="#808285" rx="33.166" ry="33.192" transform="matrix(.757 -.654 .654 .757 -46.819 51.756)" data-original="#808285" style=""/></g></g></g></g></svg>