<svg xmlns="http://www.w3.org/2000/svg" width="512" height="512" xml:space="preserve" version="1.1">

 <g>
  <title>Layer 1</title>
  <rect rx="5" stroke="null" stroke-width="0" id="svg_41" height="213.58364" width="512" y="298.41635" x="0" fill="#ea9c00"/>
  <g id="svg_1">
   <g xmlns="http://www.w3.org/2000/svg" id="svg_2">
    <path id="svg_3" data-original="#fccd7f" fill="#fccd7f" d="m264.538,438.936l0.441,-1.512l-3.251,-2.221c-29.372,-20.065 -68.043,-20.065 -97.415,0l-36.816,25.149c-2.637,1.802 -1.362,5.929 1.832,5.929l93.406,0l4.24,-1.685l37.563,-25.66z"/>
    <g id="svg_4">
     <g id="svg_5">
      <path id="svg_6" data-original="#fccd7f" fill="#fccd7f" d="m124.581,249.629c21.35,0 42.01,5.843 60.128,16.919l44.123,-43.097l-55.922,-54.621l-91.146,89.026c13.53,-5.413 28.007,-8.227 42.817,-8.227z"/>
     </g>
     <path id="svg_7" data-original="#e9b665" fill="#e9b665" d="m166.013,218.136c4.416,-4.416 6.897,-10.406 6.897,-16.652l0,-32.654l-91.146,89.026c13.529,-5.414 28.007,-8.227 42.816,-8.227c20.239,0 39.86,5.243 57.281,15.222l-14.332,-12.022c-10.584,-8.879 -11.286,-24.922 -1.516,-34.693z"/>
     <path id="svg_8" data-original="#d8aa5e" fill="#d8aa5e" d="m115.207,250.017l57.703,-56.361l0,-24.825l-91.146,89.026c10.66,-4.266 21.908,-6.91 33.443,-7.84z"/>
     <path id="svg_9" data-original="#fccd7f" fill="#fccd7f" d="m189.683,269.743l26.687,18.23c9.317,-0.948 18.717,-1.438 28.175,-1.438c16.552,0 32.929,1.477 48.985,4.36l30.964,-21.152c19.262,-13.158 41.774,-20.113 65.102,-20.113c9.522,0 18.903,1.178 27.987,3.445l-110.255,-107.69l-123.503,120.629c1.98,1.187 3.939,2.418 5.858,3.729z"/>
     <path id="svg_10" data-original="#e9b665" fill="#e9b665" d="m189.683,269.743l26.687,18.23c9.317,-0.948 18.717,-1.438 28.175,-1.438c16.552,0 32.929,1.477 48.985,4.36l22.299,-15.233l-13.825,-13.825c-12.943,-12.942 -10.531,-34.55 4.946,-44.321c10.792,-6.813 15.75,-19.962 12.143,-32.204l-11.765,-39.928l-123.503,120.63c1.98,1.187 3.939,2.418 5.858,3.729z"/>
     <path id="svg_11" data-original="#d8aa5e" fill="#d8aa5e" d="m189.683,269.743l14.178,9.686l111.014,-108.432l-7.547,-25.613l-123.503,120.63c1.98,1.187 3.939,2.418 5.858,3.729z"/>
     <path id="svg_12" data-original="#fdb441" fill="#fdb441" d="m217.909,287.814l-27.663,-18.897c-39.598,-27.05 -91.733,-27.05 -131.331,0l-52.655,35.97c-2.637,1.802 -1.362,5.929 1.832,5.929l123.236,0c27.368,-12.347 56.543,-20.115 86.581,-23.002z"/>
     <g id="svg_13">
      <path id="svg_14" data-original="#fe9901" fill="#fe9901" d="m92.921,277.347c22.883,-15.632 49.951,-22.211 76.368,-19.776c-35.85,-14.919 -77.444,-11.15 -110.374,11.346l-52.655,35.97c-2.637,1.802 -1.362,5.929 1.832,5.929l35.835,0l48.994,-33.469z"/>
     </g>
     <path id="svg_15" data-original="#fdb441" fill="#fdb441" d="m507.917,304.887l-52.655,-35.969c-39.598,-27.05 -91.733,-27.05 -131.331,0l-31.804,21.726c22.656,3.947 44.675,10.717 65.635,20.173l148.324,0c3.193,-0.001 4.468,-4.129 1.831,-5.93z"/>
     <path id="svg_16" data-original="#fe9901" fill="#fe9901" d="m324.158,298.232l42.914,-29.315c13.563,-9.265 28.598,-15.354 44.095,-18.272c-29.747,-5.602 -61.201,0.487 -87.236,18.272l-31.804,21.726c10.838,1.888 21.53,4.425 32.031,7.589z"/>
     <g id="svg_17">
      <path id="svg_18" data-original="#e9b665" fill="#e9b665" d="m88.399,333.777l-29.289,20.008c-2.637,1.802 -1.362,5.929 1.832,5.929l367.204,0c3.194,0 4.469,-4.127 1.832,-5.929l-29.289,-20.008c-94.159,-64.323 -218.129,-64.323 -312.29,0z"/>
     </g>
     <g id="svg_19">
      <path id="svg_20" data-original="#d8aa5e" fill="#d8aa5e" d="m139.595,342.034c52.364,-35.771 113.947,-51.638 174.496,-47.623c-75.954,-19.699 -158.428,-6.583 -225.692,39.366l-29.289,20.008c-2.637,1.802 -1.362,5.929 1.832,5.929l52.773,0l25.88,-17.68z"/>
     </g>
    </g>
    <g id="svg_21">
     
    </g>
    
    <g id="svg_25">
     <path id="svg_26" data-original="#fbc56d" fill="#fbc56d" d="m113.024,415.925l-51.959,0c-4.142,0 -7.5,-3.358 -7.5,-7.5s3.358,-7.5 7.5,-7.5l51.959,0c4.142,0 7.5,3.358 7.5,7.5s-3.357,7.5 -7.5,7.5z"/>
    </g>
    <g id="svg_27">
     <path id="svg_28" data-original="#fbc56d" fill="#fbc56d" d="m161.615,460.352l36.816,-25.149c9.751,-6.661 20.528,-11.097 31.648,-13.335c-22.377,-4.504 -46.145,-0.068 -65.767,13.335l-36.816,25.149c-2.637,1.802 -1.362,5.929 1.832,5.929l34.118,0c-3.193,0 -4.468,-4.127 -1.831,-5.929z"/>
    </g>
    <g id="svg_29">
     <path id="svg_30" data-original="#e9b665" fill="#e9b665" d="m284.07,424.382l-61.334,41.898l243.489,0c3.194,0 4.469,-4.127 1.832,-5.929l-52.655,-35.97c-39.6,-27.049 -91.734,-27.049 -131.332,0.001z"/>
    </g>
    <g id="svg_31">
     <path id="svg_32" data-original="#d8aa5e" fill="#d8aa5e" d="m366.912,405.367c-28.429,-4.234 -58.086,2.104 -82.842,19.015l-61.334,41.898l34.353,0l61.334,-41.898c14.842,-10.138 31.445,-16.477 48.489,-19.015z"/>
    </g>
    <g id="svg_33">
     <path id="svg_34" data-original="#d8aa5e" fill="#d8aa5e" d="m504.5,405.1l-69.6,0c-4.142,0 -7.5,-3.358 -7.5,-7.5s3.358,-7.5 7.5,-7.5l69.6,0c4.142,0 7.5,3.358 7.5,7.5s-3.358,7.5 -7.5,7.5z"/>
    </g>
    <g id="svg_35">
     <path id="svg_36" data-original="#e9b665" fill="#e9b665" d="m78.943,473.781l-71.443,0c-4.142,0 -7.5,-3.358 -7.5,-7.5s3.358,-7.5 7.5,-7.5l71.443,0c4.142,0 7.5,3.358 7.5,7.5s-3.358,7.5 -7.5,7.5z"/>
    </g>
    <g id="svg_37">
     <path id="svg_38" data-original="#e9b665" fill="#e9b665" d="m24.832,367.213l-15.155,0c-4.142,0 -7.5,-3.358 -7.5,-7.5s3.358,-7.5 7.5,-7.5l15.155,0c4.142,0 7.5,3.358 7.5,7.5s-3.358,7.5 -7.5,7.5z"/>
    </g>
    <g id="svg_39">
     <path id="svg_40" data-original="#e9b665" fill="#e9b665" d="m504.5,367.213l-32.796,0c-4.142,0 -7.5,-3.358 -7.5,-7.5s3.358,-7.5 7.5,-7.5l32.796,0c4.142,0 7.5,3.358 7.5,7.5s-3.358,7.5 -7.5,7.5z"/>
    </g>
   </g>
  </g>
 </g>
</svg>