<svg xmlns="http://www.w3.org/2000/svg" xmlns:xlink="http://www.w3.org/1999/xlink" xmlns:svgjs="http://svgjs.com/svgjs" version="1.1" width="512" height="512" x="0" y="0" viewBox="0 0 512 512" style="enable-background:new 0 0 512 512" xml:space="preserve"><g><g xmlns="http://www.w3.org/2000/svg"><path d="m110.769 280.875c-18.51 0-33.516 15.006-33.516 33.516v152.177l67.033-21.712v-130.464c0-18.511-15.006-33.517-33.517-33.517z" fill="#009b83" data-original="#009b83" style=""/><path d="m77.252 349.201c-19.665 0-35.607 15.942-35.607 35.607v109.343l71.214-25.774v-83.57c0-19.664-15.941-35.606-35.607-35.606z" fill="#00c600" data-original="#00c600" style=""/><path d="m344.226 262.736v-28.474c0-7.667-6.216-13.883-13.883-13.883h-149.598c-7.667 0-13.883 6.216-13.883 13.883v28.474c0 44.482-36.29 130.368-67.167 179.512h311.698c-39.189-50.476-67.167-127.858-67.167-179.512z" fill="#8d431f" data-original="#8d431f" style=""/><path d="m330.344 220.38h-74.344v221.868h155.395c-39.191-50.476-67.169-127.858-67.169-179.512v-28.474c0-7.667-6.215-13.882-13.882-13.882z" fill="#6d271a" data-original="#6d271a" style=""/><path d="m420.416 60.682h-50.594c-6.278-21.055-25.778-36.41-48.873-36.41-6 0-11.753 1.044-17.099 2.947-11.274-14.818-29.089-24.39-49.145-24.39-20.936 0-39.424 10.433-50.585 26.372-6.633-3.158-14.055-4.929-21.891-4.929-23.095 0-42.595 15.355-48.873 36.41h-44.362c-18.304 0-33.142 14.838-33.142 33.142s14.838 33.142 33.142 33.142h83.857c26.193 0 47.426 21.233 47.426 47.426v94.943l29.501 14.008 39.355-33.247v-75.704c0-26.193 21.233-47.426 47.426-47.426h83.857c18.304 0 33.142-14.838 33.142-33.142 0-18.303-14.838-33.142-33.142-33.142z" fill="#e2edf2" data-original="#e2edf2" style=""/><path d="m420.416 60.644h-50.594c-6.278-21.055-25.778-36.41-48.873-36.41-6 0-11.753 1.044-17.099 2.947-11.029-14.497-28.325-23.948-47.85-24.352v275.22l33.133-27.991v-75.704c0-26.193 21.233-47.426 47.426-47.426h83.857c18.304 0 33.142-14.838 33.142-33.142s-14.838-33.142-33.142-33.142z" fill="#add3d8" data-original="#add3d8" style=""/><path d="m436.146 359.395c-18.39 0-33.298 14.908-33.298 33.298v101.458h66.595v-101.458c0-18.39-14.908-33.298-33.297-33.298z" fill="#009b83" data-original="#009b83" style=""/><ellipse xmlns="http://www.w3.org/2000/svg" cx="110.769" cy="198.563" fill="#ffbb00" rx="14.532" ry="14.408" data-original="#ffbb00" style=""/>
<ellipse xmlns="http://www.w3.org/2000/svg" cx="48.769" cy="260.563" fill="#ffbb00" rx="18.532" ry="18.408" data-original="#ffbb00" style=""/><ellipse xmlns="http://www.w3.org/2000/svg" cx="402.848" cy="264.722" fill="#ff804b" rx="14.532" ry="14.408" data-original="#ff804b" style=""/>
<ellipse xmlns="http://www.w3.org/2000/svg" cx="375.848" cy="164.722" fill="#ff804b" rx="19.532" ry="19.408" data-original="#ff804b" style=""/><path d="m194.741 389.531 16.896 34.807c2.597 5.35 7.949 8.464 13.522 8.464 2.201 0 4.436-.486 6.548-1.511 7.462-3.623 10.575-12.608 6.953-20.069l-10.738-22.122 49.9-28.238 23.255 18.017c2.736 2.12 5.975 3.147 9.188 3.147 4.486 0 8.924-2.001 11.884-5.821 5.078-6.558 3.881-15.992-2.676-21.073l-25.334-19.627v-33.666c0-4.87-2.362-9.438-6.336-12.255l-4.089-2.898 30.233-25.541c3.378-2.854 5.327-7.051 5.327-11.473v-29.292h-30.038v22.32l-30.836 26.05-38.001-17.569v-30.801h-30.038v38.566c0 4.87 2.362 9.438 6.336 12.255l67.404 38.405v24.507l-63.247 35.789c-.9.377-5.267 2.316-7.294 7.263-2.554 6.231.83 11.809 1.181 12.366z" fill="#ff804b" data-original="#ff804b" style=""/><path d="m373.749 435.867c-14.187 0-27.704 2.578-40.002 7.239-20.452-17.205-47.938-27.743-78.168-27.743-30.24 0-57.735 10.546-78.189 27.76-12.311-4.673-25.844-7.256-40.049-7.256-43.416 0-80.553 24.137-95.696 58.285l427.798-.005c-15.145-34.146-52.28-58.28-95.694-58.28z" fill="#87e000" data-original="#87e000" style=""/><g><g><path d="m496.981 509.17h-481.962c-8.294 0-15.019-6.724-15.019-15.019s6.725-15.019 15.019-15.019h481.962c8.294 0 15.019 6.724 15.019 15.019s-6.725 15.019-15.019 15.019z" fill="#005357" data-original="#005357" style=""/></g></g><path d="m319.472 355.131-25.334-19.627v-33.666c0-4.87-2.362-9.438-6.336-12.255l-4.089-2.898 30.233-25.541c3.378-2.854 5.327-7.051 5.327-11.473v-29.291h-30.038v22.32l-30.835 26.05-2.401-1.109v37.348l8.101 4.616v24.507l-8.101 4.584v34.514l21.821-12.349 23.255 18.017c2.736 2.12 5.975 3.147 9.188 3.147 4.486 0 8.924-2.001 11.884-5.821 5.08-6.558 3.883-15.992-2.675-21.073z" fill="#ff1e55" data-original="#ff1e55" style=""/><path d="m333.747 443.102c-20.356-17.125-47.683-27.641-77.747-27.739v78.782l213.443-.002c-15.145-34.146-52.28-58.28-95.694-58.28-14.187 0-27.704 2.577-40.002 7.239z" fill="#00c600" data-original="#00c600" style=""/><path d="m496.981 479.132h-240.981v30.038h240.981c8.294 0 15.019-6.725 15.019-15.019s-6.725-15.019-15.019-15.019z" fill="#00313e" data-original="#00313e" style=""/></g></g></svg>